<?xml version="1.0" encoding="utf-8"?><svg xmlns="http://www.w3.org/2000/svg" xmlns:xlink="http://www.w3.org/1999/xlink"><symbol fill="none" viewBox="0 0 705 447" id="big-chart" xmlns="http://www.w3.org/2000/svg"><path fill="#ED145B" d="M545.473.317h1.376v446h-1.376z"/><path fill="url(#apaint0_linear)" d="M545.473.317h1.376v446h-1.376z"/><path fill="#C4C4C4" d="M399.698.317h1.376v446h-1.376z"/><path fill="url(#apaint1_linear)" d="M399.698.317h1.376v446h-1.376z"/><path fill="url(#apaint2_linear)" d="M399.698.317h1.376v446h-1.376z"/><path fill="#C4C4C4" d="M253.924.317h1.376v446h-1.376z"/><path fill="url(#apaint3_linear)" d="M253.924.317h1.376v446h-1.376z"/><path fill="url(#apaint4_linear)" d="M253.924.317h1.376v446h-1.376z"/><path fill="#C4C4C4" d="M108.149.317h1.376v446h-1.376z"/><path fill="url(#apaint5_linear)" d="M108.149.317h1.376v446h-1.376z"/><path fill="url(#apaint6_linear)" d="M108.149.317h1.376v446h-1.376z"/><path fill="#C4C4C4" d="M5.006 358.218v-1.376H705v1.376z"/><path transform="rotate(-90 5.006 358.218)" fill="url(#apaint7_linear)" d="M5.006 358.218h1.376v699.994H5.006z"/><path transform="rotate(-90 5.006 358.218)" fill="url(#apaint8_linear)" d="M5.006 358.218h1.376v699.994H5.006z"/><path fill="#C4C4C4" d="M5.006 289.391v-1.376H705v1.376z"/><path transform="rotate(-90 5.006 289.391)" fill="url(#apaint9_linear)" d="M5.006 289.391h1.376v699.994H5.006z"/><path transform="rotate(-90 5.006 289.391)" fill="url(#apaint10_linear)" d="M5.006 289.391h1.376v699.994H5.006z"/><path fill="#C4C4C4" d="M5.006 220.564v-1.376H705v1.376z"/><path transform="rotate(-90 5.006 220.564)" fill="url(#apaint11_linear)" d="M5.006 220.564h1.376v699.994H5.006z"/><path transform="rotate(-90 5.006 220.564)" fill="url(#apaint12_linear)" d="M5.006 220.564h1.376v699.994H5.006z"/><path fill="#C4C4C4" d="M5.006 151.736v-1.376H705v1.376z"/><path transform="rotate(-90 5.006 151.736)" fill="url(#apaint13_linear)" d="M5.006 151.736h1.376V851.73H5.006z"/><path transform="rotate(-90 5.006 151.736)" fill="url(#apaint14_linear)" d="M5.006 151.736h1.376V851.73H5.006z"/><path fill="#C4C4C4" d="M5.006 82.91v-1.376H705v1.376z"/><path transform="rotate(-90 5.006 82.91)" fill="url(#apaint15_linear)" d="M5.006 82.909h1.376v699.994H5.006z"/><path transform="rotate(-90 5.006 82.91)" fill="url(#apaint16_linear)" d="M5.006 82.909h1.376v699.994H5.006z"/><path d="M1 402.182c1.606-9.832 4.955-31.555 5.505-39.787.551-8.231 4.818-21.722 6.882-27.439.688 3.201 2.89 11.387 6.194 18.522 4.129 8.917 3.44 7.545 5.505 0 1.652-6.037 4.359-14.863 5.506-18.522.23 3.887.826 12.348 1.376 15.092.55 2.744 2.065 13.948 2.753 19.207l2.064 24.695c1.836-5.03 5.23-17.012 4.13-24.695-1.102-7.683.917-13.72 2.064-15.777 1.835 7.545 5.505 22.911 5.505 24.009 0 1.372 3.441-15.778 4.818-19.894 1.376-4.115 6.193-13.033 7.57-17.149 1.1-3.293 6.423 17.835 8.946 28.811l4.817-47.332 4.818 16.463 2.064 7.546 7.57-9.604 4.817-30.183c.918-16.92 2.89-51.859 3.441-56.25.55-4.39 3.9 14.177 5.506 24.009l5.505 10.29 4.817-10.29 6.194 2.744v-20.579c1.147-7.088 3.716-23.049 4.817-30.183s5.965 11.204 8.258 21.265c1.836-19.893 5.919-61.189 7.57-67.225 1.652-6.037 8.947-27.668 12.388-37.729l7.57 52.134 3.441-39.1V89.377l13.075 37.043 7.57-121.418 6.194 41.845 4.129-22.638 6.882 63.11 4.129-54.192 6.881 33.613 6.194 9.604 1.376 60.365 7.57-33.612 7.57-13.72 1.377-70.655 9.634 26.067 8.258 13.72 6.882 17.835v34.984l9.635-13.72 8.258 117.989 2.753-48.019 6.193 31.555 8.258 6.174 3.441 41.844 6.882-29.497v-30.182l6.194 21.951 7.57 27.439 2.064-46.647 7.57 25.382c3.212 13.033 10.323 40.884 13.076 48.018 2.752 7.134 4.358 6.631 4.817 5.488l3.441-16.464 2.753-37.042 6.193 37.042 13.076-5.488 4.817 37.043 4.129-26.067 2.065 12.348 5.505-16.464c.688 13.262 3.166 40.335 7.57 42.531l6.882-27.439 1.376-37.729 7.57-32.241 4.817 48.018 7.57-86.433 7.57 38.415 7.57-4.116 5.506 57.622 5.505-30.869 8.258-4.116 6.194-10.289 6.194 29.497 6.193-41.845c.23 6.174 1.101 19.345 2.753 22.637 2.065 4.116 8.258 6.174 12.387-2.057 3.304-6.586 5.506-21.494 6.194-28.125l4.817 15.777c2.524-2.744 7.57-7.82 7.57-6.174 0 2.058 5.506 4.802 8.947 24.695 2.752 15.915 8.946 30.869 11.699 36.357l8.946-19.893 4.817-39.101" stroke="#E2E2E2" stroke-width="2"/><path d="M1 402.182c1.606-9.832 4.955-31.555 5.505-39.787.551-8.231 4.818-21.722 6.882-27.439.688 3.201 2.89 11.387 6.194 18.522 4.129 8.917 3.44 7.545 5.505 0 1.652-6.037 4.359-14.863 5.506-18.522.23 3.887.826 12.348 1.376 15.092.55 2.744 2.065 13.948 2.753 19.207l2.064 24.695c1.836-5.03 5.23-17.012 4.13-24.695-1.102-7.683.917-13.72 2.064-15.777 1.835 7.545 5.505 22.911 5.505 24.009 0 1.372 3.441-15.778 4.818-19.894 1.376-4.115 6.193-13.033 7.57-17.149 1.1-3.293 6.423 17.835 8.946 28.811l4.817-47.332 4.818 16.463 2.064 7.546 7.57-9.604 4.817-30.183c.918-16.92 2.89-51.859 3.441-56.25.55-4.39 3.9 14.177 5.506 24.009l5.505 10.29 4.817-10.29 6.194 2.744v-20.579c1.147-7.088 3.716-23.049 4.817-30.183s5.965 11.204 8.258 21.265c1.836-19.893 5.919-61.189 7.57-67.225 1.652-6.037 8.947-27.668 12.388-37.729l7.57 52.134 3.441-39.1V89.377l13.075 37.043 7.57-121.418 6.194 41.845 4.129-22.638 6.882 63.11 4.129-54.192 6.881 33.613 6.194 9.604 1.376 60.365 7.57-33.612 7.57-13.72 1.377-70.655 9.634 26.067 8.258 13.72 6.882 17.835v34.984l9.635-13.72 8.258 117.989 2.753-48.019 6.193 31.555 8.258 6.174 3.441 41.844 6.882-29.497v-30.182l6.194 21.951 7.57 27.439 2.064-46.647 7.57 25.382c3.212 13.033 10.323 40.884 13.076 48.018 2.752 7.134 4.358 6.631 4.817 5.488l3.441-16.464 2.753-37.042 6.193 37.042 13.076-5.488 4.817 37.043 4.129-26.067 2.065 12.348 5.505-16.464c.688 13.262 3.166 40.335 7.57 42.531l6.882-27.439 1.376-37.729 7.57-32.241 4.817 48.018 7.57-86.433 7.57 38.415 7.57-4.116 5.506 57.622 5.505-30.869 8.258-4.116 6.194-10.289 6.194 29.497 6.193-41.845c.23 6.174 1.101 19.345 2.753 22.637 2.065 4.116 8.258 6.174 12.387-2.057 3.304-6.586 5.506-21.494 6.194-28.125l4.817 15.777c2.524-2.744 7.57-7.82 7.57-6.174 0 2.058 5.506 4.802 8.947 24.695 2.752 15.915 8.946 30.869 11.699 36.357l8.946-19.893 4.817-39.101" stroke="url(#apaint17_linear)" stroke-width="2"/><path d="M1 402.182c1.606-9.832 4.955-31.555 5.505-39.787.551-8.231 4.818-21.722 6.882-27.439.688 3.201 2.89 11.387 6.194 18.522 4.129 8.917 3.44 7.545 5.505 0 1.652-6.037 4.359-14.863 5.506-18.522.23 3.887.826 12.348 1.376 15.092.55 2.744 2.065 13.948 2.753 19.207l2.064 24.695c1.836-5.03 5.23-17.012 4.13-24.695-1.102-7.683.917-13.72 2.064-15.777 1.835 7.545 5.505 22.911 5.505 24.009 0 1.372 3.441-15.778 4.818-19.894 1.376-4.115 6.193-13.033 7.57-17.149 1.1-3.293 6.423 17.835 8.946 28.811l4.817-47.332 4.818 16.463 2.064 7.546 7.57-9.604 4.817-30.183c.918-16.92 2.89-51.859 3.441-56.25.55-4.39 3.9 14.177 5.506 24.009l5.505 10.29 4.817-10.29 6.194 2.744v-20.579c1.147-7.088 3.716-23.049 4.817-30.183s5.965 11.204 8.258 21.265c1.836-19.893 5.919-61.189 7.57-67.225 1.652-6.037 8.947-27.668 12.388-37.729l7.57 52.134 3.441-39.1V89.377l13.075 37.043 7.57-121.418 6.194 41.845 4.129-22.638 6.882 63.11 4.129-54.192 6.881 33.613 6.194 9.604 1.376 60.365 7.57-33.612 7.57-13.72 1.377-70.655 9.634 26.067 8.258 13.72 6.882 17.835v34.984l9.635-13.72 8.258 117.989 2.753-48.019 6.193 31.555 8.258 6.174 3.441 41.844 6.882-29.497v-30.182l6.194 21.951 7.57 27.439 2.064-46.647 7.57 25.382c3.212 13.033 10.323 40.884 13.076 48.018 2.752 7.134 4.358 6.631 4.817 5.488l3.441-16.464 2.753-37.042 6.193 37.042 13.076-5.488 4.817 37.043 4.129-26.067 2.065 12.348 5.505-16.464c.688 13.262 3.166 40.335 7.57 42.531l6.882-27.439 1.376-37.729 7.57-32.241 4.817 48.018 7.57-86.433 7.57 38.415 7.57-4.116 5.506 57.622 5.505-30.869 8.258-4.116 6.194-10.289 6.194 29.497 6.193-41.845c.23 6.174 1.101 19.345 2.753 22.637 2.065 4.116 8.258 6.174 12.387-2.057 3.304-6.586 5.506-21.494 6.194-28.125l4.817 15.777c2.524-2.744 7.57-7.82 7.57-6.174 0 2.058 5.506 4.802 8.947 24.695 2.752 15.915 8.946 30.869 11.699 36.357l8.946-19.893 4.817-39.101" stroke="url(#apaint18_linear)" stroke-width="2"/><path d="M546.727 200.94l22.421 17.159 8.969-13.728v-29.513l11.211-10.982 5.605-46.672 6.726 22.65 8.969-15.1 4.484 28.827 14.574-53.536" stroke="#ED145B" stroke-width="2" stroke-linecap="round" stroke-linejoin="round" stroke-dasharray="4 4"/><defs><linearGradient id="apaint0_linear" x1="546.161" y1=".317" x2="546.161" y2="446.317" gradientUnits="userSpaceOnUse"><stop stop-color="#0A0B1A"/><stop offset=".448" stop-color="#454652" stop-opacity="0"/></linearGradient><linearGradient id="apaint1_linear" x1="400.386" y1=".317" x2="400.386" y2="446.317" gradientUnits="userSpaceOnUse"><stop offset=".354" stop-color="#181B2C"/><stop offset="1" stop-color="#646980" stop-opacity="0"/></linearGradient><linearGradient id="apaint2_linear" x1="400.386" y1=".317" x2="400.386" y2="446.317" gradientUnits="userSpaceOnUse"><stop stop-color="#454652" stop-opacity="0"/><stop offset=".943" stop-color="#0A0B1A"/></linearGradient><linearGradient id="apaint3_linear" x1="254.612" y1=".317" x2="254.612" y2="446.317" gradientUnits="userSpaceOnUse"><stop offset=".354" stop-color="#181B2C"/><stop offset="1" stop-color="#646980" stop-opacity="0"/></linearGradient><linearGradient id="apaint4_linear" x1="254.612" y1=".317" x2="254.612" y2="446.317" gradientUnits="userSpaceOnUse"><stop stop-color="#454652" stop-opacity="0"/><stop offset=".943" stop-color="#0A0B1A"/></linearGradient><linearGradient id="apaint5_linear" x1="108.837" y1=".317" x2="108.837" y2="446.317" gradientUnits="userSpaceOnUse"><stop offset=".354" stop-color="#181B2C"/><stop offset="1" stop-color="#646980" stop-opacity="0"/></linearGradient><linearGradient id="apaint6_linear" x1="108.837" y1=".317" x2="108.837" y2="446.317" gradientUnits="userSpaceOnUse"><stop stop-color="#454652" stop-opacity="0"/><stop offset=".943" stop-color="#0A0B1A"/></linearGradient><linearGradient id="apaint7_linear" x1="5.694" y1="358.218" x2="5.694" y2="1058.21" gradientUnits="userSpaceOnUse"><stop offset=".354" stop-color="#181B2C"/><stop offset="1" stop-color="#646980" stop-opacity="0"/></linearGradient><linearGradient id="apaint8_linear" x1="5.694" y1="358.218" x2="5.694" y2="1058.21" gradientUnits="userSpaceOnUse"><stop stop-color="#454652" stop-opacity="0"/><stop offset=".943" stop-color="#0A0B1A"/></linearGradient><linearGradient id="apaint9_linear" x1="5.694" y1="289.391" x2="5.694" y2="989.384" gradientUnits="userSpaceOnUse"><stop offset=".354" stop-color="#181B2C"/><stop offset="1" stop-color="#646980" stop-opacity="0"/></linearGradient><linearGradient id="apaint10_linear" x1="5.694" y1="289.391" x2="5.694" y2="989.384" gradientUnits="userSpaceOnUse"><stop stop-color="#454652" stop-opacity="0"/><stop offset=".943" stop-color="#0A0B1A"/></linearGradient><linearGradient id="apaint11_linear" x1="5.694" y1="220.564" x2="5.694" y2="920.557" gradientUnits="userSpaceOnUse"><stop offset=".354" stop-color="#181B2C"/><stop offset="1" stop-color="#646980" stop-opacity="0"/></linearGradient><linearGradient id="apaint12_linear" x1="5.694" y1="220.564" x2="5.694" y2="920.557" gradientUnits="userSpaceOnUse"><stop stop-color="#454652" stop-opacity="0"/><stop offset=".943" stop-color="#0A0B1A"/></linearGradient><linearGradient id="apaint13_linear" x1="5.694" y1="151.736" x2="5.694" y2="851.73" gradientUnits="userSpaceOnUse"><stop offset=".354" stop-color="#181B2C"/><stop offset="1" stop-color="#646980" stop-opacity="0"/></linearGradient><linearGradient id="apaint14_linear" x1="5.694" y1="151.736" x2="5.694" y2="851.73" gradientUnits="userSpaceOnUse"><stop stop-color="#454652" stop-opacity="0"/><stop offset=".943" stop-color="#0A0B1A"/></linearGradient><linearGradient id="apaint15_linear" x1="5.694" y1="82.909" x2="5.694" y2="782.903" gradientUnits="userSpaceOnUse"><stop offset=".354" stop-color="#181B2C"/><stop offset="1" stop-color="#646980" stop-opacity="0"/></linearGradient><linearGradient id="apaint16_linear" x1="5.694" y1="82.909" x2="5.694" y2="782.903" gradientUnits="userSpaceOnUse"><stop stop-color="#454652" stop-opacity="0"/><stop offset=".943" stop-color="#0A0B1A"/></linearGradient><linearGradient id="apaint17_linear" x1="-12.075" y1="402.182" x2="592.147" y2="402.182" gradientUnits="userSpaceOnUse"><stop stop-color="#1B1F31"/><stop offset=".405" stop-color="#fff" stop-opacity=".406"/><stop offset=".891" stop-color="#161A2E" stop-opacity="0"/></linearGradient><linearGradient id="apaint18_linear" x1="273.864" y1="5.002" x2="273.864" y2="402.182" gradientUnits="userSpaceOnUse"><stop stop-color="#fff"/><stop offset="1" stop-color="#fff" stop-opacity="0"/></linearGradient></defs></symbol><symbol fill="none" viewBox="0 0 82 58" id="book" xmlns="http://www.w3.org/2000/svg"><path d="M73.868 13.325a1.138 1.138 0 01-1.56.438c-8.39-4.79-17.26-4.79-25.65 0a1.13 1.13 0 01-.56.149c-.4 0-.789-.214-1-.59a1.164 1.164 0 01.433-1.579C50.053 9.16 54.749 7.85 59.48 7.85c4.732 0 9.427 1.31 13.951 3.893.554.316.748 1.022.436 1.582z" fill="#0FD"/><path d="M49.37 49.637a38.928 38.928 0 00-7.226 3.065V7.256c5.578-3.275 11.407-4.938 17.337-4.938s11.76 1.66 17.334 4.938v25.842l.295.034c2.068.027 3.88 1.154 4.89 2.824V11.17c0-.815-.701-1.477-1.57-1.477h-1.323V6.595c0-.408-.211-.784-.554-.995C72.45 1.884 66.033 0 59.481 0 53.145 0 46.93 1.765 41 5.247 35.07 1.765 28.858 0 22.519 0 15.97 0 9.554 1.884 3.447 5.6a1.16 1.16 0 00-.554.995v3.098H1.57C.705 9.693 0 10.355 0 11.17v45.32c0 .814.705 1.476 1.57 1.476H57.63c-.074-.068-.151-.132-.222-.204l-8.037-8.125zm-9.514 3.065c-5.585-3.051-11.407-4.599-17.337-4.599s-11.753 1.544-17.334 4.599V7.256c5.578-3.275 11.407-4.938 17.337-4.938s11.76 1.66 17.334 4.938v45.446z" fill="#0FD"/><path d="M22.519 7.85c-4.732 0-9.427 1.31-13.951 3.893a1.169 1.169 0 00-.436 1.579 1.141 1.141 0 001.564.441c8.39-4.79 17.26-4.79 25.65 0 .55.315 1.251.119 1.56-.438a1.164 1.164 0 00-.433-1.578C31.946 9.16 27.25 7.85 22.519 7.85zM36.47 20.059c-4.524-2.583-9.22-3.893-13.951-3.893-4.732 0-9.427 1.31-13.951 3.893a1.169 1.169 0 00-.436 1.578 1.141 1.141 0 001.564.441c8.39-4.789 17.26-4.789 25.65 0 .55.316 1.251.119 1.56-.441a1.162 1.162 0 00-.437-1.578zM36.47 27.875c-4.524-2.583-9.22-3.893-13.951-3.893-4.732 0-9.427 1.31-13.951 3.893a1.169 1.169 0 00-.436 1.578 1.141 1.141 0 001.564.441c8.39-4.789 17.26-4.789 25.65 0 .55.316 1.251.12 1.56-.44a1.163 1.163 0 00-.437-1.58zM36.47 35.681c-4.524-2.583-9.22-3.893-13.951-3.893-4.732 0-9.427 1.31-13.951 3.893a1.169 1.169 0 00-.436 1.578 1.14 1.14 0 001.564.441c8.39-4.788 17.26-4.788 25.65 0 .55.316 1.251.12 1.56-.44a1.163 1.163 0 00-.437-1.579zM36.47 43.256c-4.524-2.582-9.22-3.892-13.951-3.892-4.732 0-9.427 1.31-13.951 3.892a1.169 1.169 0 00-.436 1.579 1.141 1.141 0 001.564.441c8.39-4.79 17.26-4.79 25.65 0 .55.316 1.251.119 1.56-.441a1.163 1.163 0 00-.437-1.579zM73.436 11.743C68.912 9.16 64.216 7.85 59.485 7.85c-4.732 0-9.427 1.31-13.951 3.893a1.165 1.165 0 00-.433 1.579c.212.376.6.59 1 .59.191 0 .383-.048.56-.15 8.39-4.788 17.26-4.788 25.65 0 .55.316 1.252.12 1.56-.437a1.172 1.172 0 00-.435-1.582zM73.436 19.444c-4.524-2.583-9.22-3.893-13.951-3.893-4.732 0-9.427 1.31-13.951 3.893a1.165 1.165 0 00-.433 1.578c.212.377.6.591 1 .591.191 0 .383-.047.56-.15 8.39-4.788 17.26-4.788 25.65 0 .55.316 1.252.12 1.56-.44a1.169 1.169 0 00-.435-1.579zM73.868 29.453a1.164 1.164 0 00-.432-1.578c-2.293-1.31-4.632-2.291-6.994-2.94v2.414a28.294 28.294 0 015.866 2.545c.55.316 1.248.12 1.56-.44zM45.094 29.453c.212.377.601.59 1 .59.192 0 .383-.047.56-.149 2.864-1.632 5.78-2.708 8.716-3.227v-2.349c-3.335.536-6.631 1.727-9.84 3.56a1.164 1.164 0 00-.436 1.575zM45.094 37.26c.212.376.601.59 1 .59.192 0 .383-.048.56-.15 2.864-1.632 5.78-2.708 8.716-3.227v-2.349c-3.335.54-6.631 1.728-9.84 3.56a1.164 1.164 0 00-.436 1.575z" fill="#0FD" stroke="#0FD"/><path d="M77.033 58c2.487 0 4.504-2.04 4.504-4.555V39.017c0-2.518-2.017-4.558-4.504-4.558l-11.907-1.374v-9.633c0-2.358-1.89-4.266-4.218-4.266-2.333 0-4.219 1.911-4.219 4.267v20.323l-4.027-4.073a3.947 3.947 0 00-5.625 0 4.058 4.058 0 000 5.692l11.3 11.427a3.949 3.949 0 002.812 1.175c.044 0 .09 0 .134-.004.04 0 .084.007.125.007h15.625z" fill="#0FD"/></symbol><symbol fill="none" viewBox="0 0 64 60" id="chart" xmlns="http://www.w3.org/2000/svg"><path fill-rule="evenodd" clip-rule="evenodd" d="M57.332 25.577h-8.911v9.79h-5.796v16.214h14.77V25.577h-.063zm-11.217 22.45V38.86h4.611v9.167h-4.611zM39.509 0h-8.911v22.646H24.74v28.935h14.77V0zM28.23 48.027V26.139h4.612v21.888H28.23zm-6.792-29.31h-8.911V34.62H6.668V51.58h14.77V18.718zm-11.28 29.31v-9.915h4.612v9.915h-4.611zM64 54.45H0V60h64v-5.55z" fill="#0FD"/></symbol><symbol fill="none" viewBox="0 0 82 59" id="chart2" xmlns="http://www.w3.org/2000/svg"><path fill-rule="evenodd" clip-rule="evenodd" d="M12.829 5.713v34.931h56.256V5.713H12.829zM7.8 46.357V0H74.2v46.357c2.6 2.435 5.2 4.964 7.801 7.399V59H0v-5.244c2.6-2.435 5.2-4.964 7.801-7.399zm13.09-14.703v6.275h-4.248v-3.465l4.247-2.81zm7.28-4.963v11.238h-4.247V29.5l4.247-2.81zm7.281 4.87v6.274h-4.247V28.47l4.247 3.09zm7.368.655v5.619h-4.247v-4.402c1.56.562 3.207 0 4.247-1.217zm7.282-8.99v14.703H45.94v-15.36l.346-1.217 2.514 1.405c.434.187.867.375 1.3.468zm7.367-2.997v17.606h-4.247V22.476l4.247-2.247zm7.282-3.746v21.446h-4.248V23.88l4.248-7.398zm-48.108 9.552l10.488-7.117c.867-.656 2.08-.562 2.86.093l8.235 5.994 3.034-10.957c.433-1.592 2.254-2.342 3.64-1.499l5.895 3.278 6.068-3.278-1.387-2.81 10.575.656-5.548 9.834-1.473-2.997-7.195 3.84c-.693.374-1.647.374-2.34 0l-4.421-2.53-3.12 11.239c-.434 1.78-2.428 2.529-3.815 1.498l-9.794-7.117-11.789 7.96v-6.087h.087z" fill="#0FD"/></symbol><symbol fill="none" viewBox="0 0 60 53" id="comp" xmlns="http://www.w3.org/2000/svg"><path fill-rule="evenodd" clip-rule="evenodd" d="M17.216 52.519h25.425v-2.982H38.02l-1.674-4.308H23.513l-1.674 4.308h-4.623v2.982zm36.265-14.911c.319 0 .558-.248.558-.58V6.627c0-.331-.24-.58-.558-.58H6.376c-.319 0-.558.249-.558.58v30.401c0 .331.24.58.558.58h47.105zM2.391 0h55.155c1.275 0 2.391 1.077 2.391 2.485V41.17c0 1.325-1.036 2.485-2.391 2.485H2.391C1.116 43.655 0 42.578 0 41.17V2.485C0 1.077 1.036 0 2.391 0zm6.137 34.543V30.07h9.166v4.473H8.528zm11.318 0V30.07h9.166v4.473h-9.166zm11.238 0V30.07h9.166v4.473h-9.166zm11.239 0V30.07h9.166v4.473h-9.166zm-33.795-6.13V23.94h9.166v4.473H8.528zm11.318 0V23.94h9.166v4.473h-9.166zm11.238 0V23.94h9.166v4.473h-9.166zm11.239 0V23.94h9.166v4.473h-9.166zm-33.795-6.13V17.81h9.166v4.473H8.528zm22.556 0V17.81h9.166v4.473h-9.166zm11.239 0V17.81h9.166v4.473h-9.166zm0-6.213v-4.473h9.166v4.473h-9.166z" fill="#0FD"/></symbol><symbol fill="none" viewBox="0 0 200 34" id="logo" xmlns="http://www.w3.org/2000/svg"><path d="M135.73 9.81c-1.245-1.491-2.944-2.237-5.152-2.237-2.265 0-4.247.918-5.946 2.754V6.712l-6.852 4.418v16.925h6.852V15.548c.849-1.205 1.925-1.779 3.284-1.779.85 0 1.529.287 2.039.803.509.517.792 1.377.792 2.467v10.959h6.852V15.72c0-2.41-.623-4.418-1.869-5.91zM87.203 9.696C85.9 8.319 84.2 7.63 82.106 7.63c-1.302 0-2.548.287-3.68.918-1.19.631-2.095 1.435-2.718 2.353a6.684 6.684 0 00-2.209-2.353 5.785 5.785 0 00-3.227-.975c-2.605 0-4.644.975-6.06 2.869v-3.73l-6.85 4.418v16.868h6.85V15.605c.737-1.205 1.813-1.836 3.115-1.836 1.642 0 2.492 1.09 2.492 3.213v11.073h6.851v-12.45c.68-1.205 1.756-1.836 3.115-1.836 1.642 0 2.491 1.09 2.491 3.213v11.073h6.852v-12.45c0-2.582-.623-4.532-1.925-5.91zM111.268 25.588c-2.095 2.008-4.7 2.984-7.927 2.984-3.228 0-5.89-.976-7.928-2.984-2.095-2.008-3.114-4.475-3.114-7.515 0-2.984 1.02-5.45 3.114-7.459 2.096-2.008 4.757-3.04 7.928-3.04 3.171 0 5.832 1.032 7.927 3.04 2.095 2.008 3.115 4.475 3.115 7.459.056 3.04-1.02 5.507-3.115 7.515zm-3.567-7.515c0-1.263-.396-2.353-1.246-3.213-.849-.86-1.868-1.32-3.114-1.32-1.246 0-2.265.46-3.115 1.32-.849.86-1.245 1.95-1.245 3.213 0 1.32.396 2.41 1.245 3.27.793.86 1.869 1.32 3.115 1.32 1.246 0 2.321-.46 3.114-1.32.793-.86 1.246-1.95 1.246-3.27zM168.516 28.572c-3.057 0-5.662-.918-7.814-2.811-2.095-1.894-3.171-4.476-3.171-7.631 0-2.983.963-5.45 2.888-7.458 1.925-2.008 4.417-3.041 7.531-3.041 2.831 0 5.096.975 6.795 2.926 1.755 1.893 2.661 4.418 2.661 7.516v1.72h-13.193c1.529 4.648 8.607 4.82 12.061 1.951v4.762c-1.812 1.377-4.417 2.066-7.758 2.066zm-4.303-12.507h6.512c0-.976-.34-1.779-.906-2.41-.623-.631-1.303-.918-2.152-.918-.906 0-1.642.287-2.265.918-.68.574-1.019 1.377-1.189 2.41zM185.051 28.055h-7.418l7.078-10.27-6.568-9.638h7.474l3.228 4.934 3.227-4.934h7.418l-6.568 9.638L200 28.113h-7.531l-3.624-5.508-3.794 5.45zM150.51 13.655v14.343h-6.852V13.655h-3.284V8.09h3.284V7.057c0-2.123.623-3.844 1.869-5.106C146.772.688 148.528 0 150.849 0c2.039 0 3.851.287 5.38.86v4.763h-3.398c-1.585 0-2.378.688-2.378 2.122v.345h5.719v5.565h-5.662z" fill="#fff"/><path d="M31.484 12.106l-11.552 7.802 8.38-9.925-12.57-8.549L0 12.048v21.285l12.57-8.49-8.38-9.926 11.552 7.803 15.742 10.613L47.225 22.72V1.433L31.484 12.106z" fill="#0FD"/></symbol><symbol fill="none" viewBox="0 0 61 62" id="man" xmlns="http://www.w3.org/2000/svg"><path fill-rule="evenodd" clip-rule="evenodd" d="M21.019 7.037C21.493 2.372 25.68 0 30.343 0s8.85 2.372 9.324 7.037c.237 2.451-.316 8.223-1.501 10.437-1.027 1.898-3.556 3.795-6.322 4.428-1.343.158-1.66.158-3.002 0-2.766-.633-5.216-2.451-6.322-4.428-1.185-2.214-1.738-7.986-1.501-10.437zM0 55.506h10.588c-1.185-.317-2.212-.95-2.844-1.898-1.185-1.581-1.027-4.428-.553-6.246l4.425-15.419c.869-5.376 7.111-7.432 11.773-8.46l4.663 10.2.553-6.325s-.396-2.135-.474-2.689c0-.237.157-.395.395-.395 1.185.079 2.37.079 3.555 0 .237 0 .395.158.395.395-.078.475-.474 2.61-.474 2.689l.553 6.325 4.663-10.2c4.425.949 10.509 2.926 11.694 8.065l4.504 15.893c.474 1.818.632 4.665-.553 6.246-.632.87-1.66 1.502-2.844 1.898h10.588v5.693H0v-5.772zm16.673-1.028h26.945v-18.74c0-.236-.079-.395-.395-.395H17.068c-.237 0-.395.158-.395.396v18.739zm1.422-2.135v1.186h24.259v-1.186H18.095z" fill="#0FD"/></symbol><symbol fill="none" viewBox="0 0 71 76" id="search" xmlns="http://www.w3.org/2000/svg"><path fill-rule="evenodd" clip-rule="evenodd" d="M30.42 64.355H4.414V4.432h48.269V31.31c1.535.482 2.975 1.156 4.414 1.927V0H0v68.69h35.314c-1.248-.867-2.495-1.83-3.55-2.89-.48-.386-.96-.964-1.344-1.445zm0-39.692V9.923h17.56v14.74H30.42zM9.116 47.495V38.44h17.561v9.056H9.117zm0-34.2V9.923h17.561v3.372H9.117zm0 5.684v-3.372h17.561v3.372H9.117zm0 5.684V21.29h17.561v3.372H9.117zm0 5.684v-3.372h17.561v3.372H9.117zM30.42 36.03v-3.372h6.621a22.264 22.264 0 00-4.702 3.372h-1.92zm-21.304 0v-3.372h17.561v3.372H9.117zm0 17.148v-3.372h17.561v3.372H9.117zm0 5.684v-3.371h17.561v3.371H9.117zm21.592-28.516v-3.372h17.56v3.372h-17.56zM62.47 59.345l7.39 7.514a3.881 3.881 0 01-.097 5.588l-2.495 2.409a3.845 3.845 0 01-5.566-.097l-7.293-7.514c-6.813 3.372-15.066 1.927-20.44-3.565-6.909-7.032-6.813-18.304.192-25.24 7.006-6.937 18.233-6.84 25.142.192 5.278 5.588 6.526 13.97 3.167 20.713zM39.152 43.642c4.223-4.143 10.94-4.047 15.066.096 4.127 4.239 4.03 10.983-.096 15.125-4.222 4.143-10.94 4.047-15.066-.096-4.222-4.239-4.126-10.983.096-15.125z" fill="#0FD"/></symbol><symbol fill="none" viewBox="0 0 58 82" id="tab" xmlns="http://www.w3.org/2000/svg"><path fill-rule="evenodd" clip-rule="evenodd" d="M3.905 82H22.56c.268 0 .536-.261.536-.523V71.456c0-.261-.268-.523-.536-.523h-3.124c.09-1.394.268-2.701.536-3.66.892-3.05 2.142-6.274 3.124-9.324.536-1.394.536-3.486.625-5.141l.268-6.013c.089-2.266.803-5.839-2.5-6.013-3.035-.174-3.57 2.702-3.749 4.793-.535 1.743-.982 3.747-1.517 5.403-.268.697-.447 1.22-1.072 1.22-1.517.087-4.374-.087-5.356-1.307-.624-.698-1.07-1.656-1.428-2.44-.268-.61-.357-.697-.446-1.307-.09-.785-.268-2.18-.804-2.963-.089-.262-.089-.349.09-.523.535-.349 2.053-1.482 2.678-2.44v-6.274c-1.964 1.394-3.839 3.311-5.803 4.967-1.16.871-1.428 1.568-1.696 2.265-.625 2.092-1.25 4.009-1.696 6.1-.089.436-.178.785-.357 1.22-.357 1.133-.446 1.83-.178 3.224.178.698.535 1.308.892 2.179l3.303 8.453c1.071 2.788 1.607 4.182 1.607 7.233v.522H3.816c-.268 0-.536.262-.536.523v10.021c.09.175.357.349.625.349zM14.08 0h41.241C56.75 0 58 1.133 58 2.614V58.21c0 1.395-1.16 2.615-2.678 2.615H23.9l.804-2.353c.357-1.046.535-2.353.625-3.573h27.583a.603.603 0 00.625-.61V4.967a.603.603 0 00-.625-.61h-36.42a.603.603 0 00-.626.61v41.828c-.357 1.22-.624 2.44-1.07 3.573 0 .087 0 .087-.09.174-.893 0-2.589-.087-3.303-.523V2.527c0-1.394 1.25-2.527 2.678-2.527zm18.835 56.729v2.091h3.57V56.73h-3.57zM18.902 18.997v4.183l3.392-2.092 7.32 4.793c1.07.697 2.588.174 2.856-1.046l2.32-7.581 3.304 1.656c.535.261 1.16.261 1.785 0l5.445-2.615 1.071 2.005 4.196-6.623-7.945-.436.982 1.917-4.552 2.179-4.464-2.266c-1.07-.523-2.41-.087-2.767 1.046l-2.232 7.407-6.159-4.009c-.625-.435-1.428-.522-2.142-.087l-2.41 1.569zM49.43 15.86l-3.125 5.054v15.86h3.125V15.86zm-5.446 2.614l-3.124 1.481v16.732h3.124V18.474zm-5.534 2.004c-.357-.087-.714-.174-.982-.348l-1.875-.959-.267.872v16.73h3.124V20.479zm-5.445 6.1c-.804.784-2.054 1.133-3.125.872v9.237h3.125V26.578zm-5.446-.436v10.632h-3.124V24.138l3.124 2.004zm-5.534-3.311v13.943h-3.124V24.748l3.124-1.917z" fill="#0FD"/></symbol></svg>