<svg width="705" height="447" viewBox="0 0 705 447" fill="none" xmlns="http://www.w3.org/2000/svg">
<rect x="545.473" y="0.316772" width="1.37592" height="446" fill="#ED145B"/>
<rect x="545.473" y="0.316772" width="1.37592" height="446" fill="url(#paint0_linear)"/>
<rect x="399.698" y="0.316772" width="1.37592" height="446" fill="#C4C4C4"/>
<rect x="399.698" y="0.316772" width="1.37592" height="446" fill="url(#paint1_linear)"/>
<rect x="399.698" y="0.316772" width="1.37592" height="446" fill="url(#paint2_linear)"/>
<rect x="253.924" y="0.316772" width="1.37592" height="446" fill="#C4C4C4"/>
<rect x="253.924" y="0.316772" width="1.37592" height="446" fill="url(#paint3_linear)"/>
<rect x="253.924" y="0.316772" width="1.37592" height="446" fill="url(#paint4_linear)"/>
<rect x="108.149" y="0.316772" width="1.37592" height="446" fill="#C4C4C4"/>
<rect x="108.149" y="0.316772" width="1.37592" height="446" fill="url(#paint5_linear)"/>
<rect x="108.149" y="0.316772" width="1.37592" height="446" fill="url(#paint6_linear)"/>
<rect x="5.00641" y="358.218" width="1.37592" height="699.994" transform="rotate(-90 5.00641 358.218)" fill="#C4C4C4"/>
<rect x="5.00641" y="358.218" width="1.37592" height="699.994" transform="rotate(-90 5.00641 358.218)" fill="url(#paint7_linear)"/>
<rect x="5.00641" y="358.218" width="1.37592" height="699.994" transform="rotate(-90 5.00641 358.218)" fill="url(#paint8_linear)"/>
<rect x="5.00641" y="289.391" width="1.37592" height="699.994" transform="rotate(-90 5.00641 289.391)" fill="#C4C4C4"/>
<rect x="5.00641" y="289.391" width="1.37592" height="699.994" transform="rotate(-90 5.00641 289.391)" fill="url(#paint9_linear)"/>
<rect x="5.00641" y="289.391" width="1.37592" height="699.994" transform="rotate(-90 5.00641 289.391)" fill="url(#paint10_linear)"/>
<rect x="5.00641" y="220.564" width="1.37592" height="699.994" transform="rotate(-90 5.00641 220.564)" fill="#C4C4C4"/>
<rect x="5.00641" y="220.564" width="1.37592" height="699.994" transform="rotate(-90 5.00641 220.564)" fill="url(#paint11_linear)"/>
<rect x="5.00641" y="220.564" width="1.37592" height="699.994" transform="rotate(-90 5.00641 220.564)" fill="url(#paint12_linear)"/>
<rect x="5.00641" y="151.736" width="1.37592" height="699.994" transform="rotate(-90 5.00641 151.736)" fill="#C4C4C4"/>
<rect x="5.00641" y="151.736" width="1.37592" height="699.994" transform="rotate(-90 5.00641 151.736)" fill="url(#paint13_linear)"/>
<rect x="5.00641" y="151.736" width="1.37592" height="699.994" transform="rotate(-90 5.00641 151.736)" fill="url(#paint14_linear)"/>
<rect x="5.00641" y="82.9093" width="1.37592" height="699.994" transform="rotate(-90 5.00641 82.9093)" fill="#C4C4C4"/>
<rect x="5.00641" y="82.9093" width="1.37592" height="699.994" transform="rotate(-90 5.00641 82.9093)" fill="url(#paint15_linear)"/>
<rect x="5.00641" y="82.9093" width="1.37592" height="699.994" transform="rotate(-90 5.00641 82.9093)" fill="url(#paint16_linear)"/>
<path d="M1 402.182C2.60575 392.35 5.9549 370.627 6.50545 362.395C7.05599 354.164 11.3227 340.673 13.3873 334.956C14.0754 338.157 16.2776 346.343 19.5809 353.478C23.71 362.395 23.0218 361.023 25.0863 353.478C26.738 347.441 29.4448 338.615 30.5918 334.956C30.8212 338.843 31.4176 347.304 31.9681 350.048C32.5187 352.792 34.0327 363.996 34.7209 369.255L36.7854 393.95C38.6205 388.92 42.0156 376.938 40.9145 369.255C39.8134 361.572 41.8321 355.535 42.979 353.478C44.8142 361.023 48.4845 376.389 48.4845 377.487C48.4845 378.859 51.9254 361.709 53.3017 357.593C54.6781 353.478 59.4954 344.56 60.8717 340.444C61.9728 337.151 67.2947 358.279 69.8181 369.255L74.6353 321.923L79.4526 338.386L81.5171 345.932L89.0871 336.328L93.9044 306.145C94.822 289.225 96.7947 254.286 97.3453 249.895C97.8958 245.505 101.245 264.072 102.851 273.904L108.356 284.194L113.173 273.904L119.367 276.648V256.069C120.514 248.981 123.083 233.02 124.184 225.886C125.285 218.752 130.149 237.09 132.442 247.151C134.278 227.258 138.361 185.962 140.012 179.926C141.664 173.889 148.959 152.258 152.4 142.197L159.97 194.331L163.411 155.231V89.377L176.486 126.42L184.056 5.00208L190.25 46.8466L194.379 24.2094L201.261 87.3191L205.39 33.1271L212.271 66.7399L218.465 76.3435L219.841 136.709L227.411 103.097L234.981 89.377L236.358 18.7216L245.992 44.7886L254.25 58.5082L261.132 76.3435V111.328L270.767 97.6088L279.025 215.597L281.778 167.578L287.971 199.133L296.229 205.307L299.67 247.151L306.552 217.654V187.472L312.746 209.423L320.316 236.862L322.38 190.215L329.95 215.597C333.162 228.63 340.273 256.481 343.026 263.615C345.778 270.749 347.384 270.246 347.843 269.103L351.284 252.639L354.037 215.597L360.23 252.639L373.306 247.151L378.123 284.194L382.252 258.127L384.317 270.475L389.822 254.011C390.51 267.273 392.988 294.346 397.392 296.542L404.274 269.103L405.65 231.374L413.22 199.133L418.037 247.151L425.607 160.718L433.177 199.133L440.747 195.017L446.253 252.639L451.758 221.77L460.016 217.654L466.21 207.365L472.404 236.862L478.597 195.017C478.827 201.191 479.698 214.362 481.35 217.654C483.415 221.77 489.608 223.828 493.737 215.597C497.041 209.011 499.243 194.103 499.931 187.472L504.748 203.249C507.272 200.505 512.318 195.429 512.318 197.075C512.318 199.133 517.824 201.877 521.265 221.77C524.017 237.685 530.211 252.639 532.964 258.127L541.91 238.234L546.727 199.133" stroke="#E2E2E2" stroke-width="2"/>
<path d="M1 402.182C2.60575 392.35 5.9549 370.627 6.50545 362.395C7.05599 354.164 11.3227 340.673 13.3873 334.956C14.0754 338.157 16.2776 346.343 19.5809 353.478C23.71 362.395 23.0218 361.023 25.0863 353.478C26.738 347.441 29.4448 338.615 30.5918 334.956C30.8212 338.843 31.4176 347.304 31.9681 350.048C32.5187 352.792 34.0327 363.996 34.7209 369.255L36.7854 393.95C38.6205 388.92 42.0156 376.938 40.9145 369.255C39.8134 361.572 41.8321 355.535 42.979 353.478C44.8142 361.023 48.4845 376.389 48.4845 377.487C48.4845 378.859 51.9254 361.709 53.3017 357.593C54.6781 353.478 59.4954 344.56 60.8717 340.444C61.9728 337.151 67.2947 358.279 69.8181 369.255L74.6353 321.923L79.4526 338.386L81.5171 345.932L89.0871 336.328L93.9044 306.145C94.822 289.225 96.7947 254.286 97.3453 249.895C97.8958 245.505 101.245 264.072 102.851 273.904L108.356 284.194L113.173 273.904L119.367 276.648V256.069C120.514 248.981 123.083 233.02 124.184 225.886C125.285 218.752 130.149 237.09 132.442 247.151C134.278 227.258 138.361 185.962 140.012 179.926C141.664 173.889 148.959 152.258 152.4 142.197L159.97 194.331L163.411 155.231V89.377L176.486 126.42L184.056 5.00208L190.25 46.8466L194.379 24.2094L201.261 87.3191L205.39 33.1271L212.271 66.7399L218.465 76.3435L219.841 136.709L227.411 103.097L234.981 89.377L236.358 18.7216L245.992 44.7886L254.25 58.5082L261.132 76.3435V111.328L270.767 97.6088L279.025 215.597L281.778 167.578L287.971 199.133L296.229 205.307L299.67 247.151L306.552 217.654V187.472L312.746 209.423L320.316 236.862L322.38 190.215L329.95 215.597C333.162 228.63 340.273 256.481 343.026 263.615C345.778 270.749 347.384 270.246 347.843 269.103L351.284 252.639L354.037 215.597L360.23 252.639L373.306 247.151L378.123 284.194L382.252 258.127L384.317 270.475L389.822 254.011C390.51 267.273 392.988 294.346 397.392 296.542L404.274 269.103L405.65 231.374L413.22 199.133L418.037 247.151L425.607 160.718L433.177 199.133L440.747 195.017L446.253 252.639L451.758 221.77L460.016 217.654L466.21 207.365L472.404 236.862L478.597 195.017C478.827 201.191 479.698 214.362 481.35 217.654C483.415 221.77 489.608 223.828 493.737 215.597C497.041 209.011 499.243 194.103 499.931 187.472L504.748 203.249C507.272 200.505 512.318 195.429 512.318 197.075C512.318 199.133 517.824 201.877 521.265 221.77C524.017 237.685 530.211 252.639 532.964 258.127L541.91 238.234L546.727 199.133" stroke="url(#paint17_linear)" stroke-width="2"/>
<path d="M1 402.182C2.60575 392.35 5.9549 370.627 6.50545 362.395C7.05599 354.164 11.3227 340.673 13.3873 334.956C14.0754 338.157 16.2776 346.343 19.5809 353.478C23.71 362.395 23.0218 361.023 25.0863 353.478C26.738 347.441 29.4448 338.615 30.5918 334.956C30.8212 338.843 31.4176 347.304 31.9681 350.048C32.5187 352.792 34.0327 363.996 34.7209 369.255L36.7854 393.95C38.6205 388.92 42.0156 376.938 40.9145 369.255C39.8134 361.572 41.8321 355.535 42.979 353.478C44.8142 361.023 48.4845 376.389 48.4845 377.487C48.4845 378.859 51.9254 361.709 53.3017 357.593C54.6781 353.478 59.4954 344.56 60.8717 340.444C61.9728 337.151 67.2947 358.279 69.8181 369.255L74.6353 321.923L79.4526 338.386L81.5171 345.932L89.0871 336.328L93.9044 306.145C94.822 289.225 96.7947 254.286 97.3453 249.895C97.8958 245.505 101.245 264.072 102.851 273.904L108.356 284.194L113.173 273.904L119.367 276.648V256.069C120.514 248.981 123.083 233.02 124.184 225.886C125.285 218.752 130.149 237.09 132.442 247.151C134.278 227.258 138.361 185.962 140.012 179.926C141.664 173.889 148.959 152.258 152.4 142.197L159.97 194.331L163.411 155.231V89.377L176.486 126.42L184.056 5.00208L190.25 46.8466L194.379 24.2094L201.261 87.3191L205.39 33.1271L212.271 66.7399L218.465 76.3435L219.841 136.709L227.411 103.097L234.981 89.377L236.358 18.7216L245.992 44.7886L254.25 58.5082L261.132 76.3435V111.328L270.767 97.6088L279.025 215.597L281.778 167.578L287.971 199.133L296.229 205.307L299.67 247.151L306.552 217.654V187.472L312.746 209.423L320.316 236.862L322.38 190.215L329.95 215.597C333.162 228.63 340.273 256.481 343.026 263.615C345.778 270.749 347.384 270.246 347.843 269.103L351.284 252.639L354.037 215.597L360.23 252.639L373.306 247.151L378.123 284.194L382.252 258.127L384.317 270.475L389.822 254.011C390.51 267.273 392.988 294.346 397.392 296.542L404.274 269.103L405.65 231.374L413.22 199.133L418.037 247.151L425.607 160.718L433.177 199.133L440.747 195.017L446.253 252.639L451.758 221.77L460.016 217.654L466.21 207.365L472.404 236.862L478.597 195.017C478.827 201.191 479.698 214.362 481.35 217.654C483.415 221.77 489.608 223.828 493.737 215.597C497.041 209.011 499.243 194.103 499.931 187.472L504.748 203.249C507.272 200.505 512.318 195.429 512.318 197.075C512.318 199.133 517.824 201.877 521.265 221.77C524.017 237.685 530.211 252.639 532.964 258.127L541.91 238.234L546.727 199.133" stroke="url(#paint18_linear)" stroke-width="2"/>
<path d="M546.727 200.94L569.148 218.099L578.117 204.371V174.858L589.328 163.876L594.933 117.204L601.659 139.854L610.628 124.754L615.112 153.581L629.686 100.045" stroke="#ED145B" stroke-width="2" stroke-linecap="round" stroke-linejoin="round" stroke-dasharray="4 4"/>
<defs>
<linearGradient id="paint0_linear" x1="546.161" y1="0.316772" x2="546.161" y2="446.317" gradientUnits="userSpaceOnUse">
<stop stop-color="#0A0B1A"/>
<stop offset="0.447917" stop-color="#454652" stop-opacity="0"/>
</linearGradient>
<linearGradient id="paint1_linear" x1="400.386" y1="0.316772" x2="400.386" y2="446.317" gradientUnits="userSpaceOnUse">
<stop offset="0.354167" stop-color="#181B2C"/>
<stop offset="1" stop-color="#646980" stop-opacity="0"/>
</linearGradient>
<linearGradient id="paint2_linear" x1="400.386" y1="0.316772" x2="400.386" y2="446.317" gradientUnits="userSpaceOnUse">
<stop stop-color="#454652" stop-opacity="0"/>
<stop offset="0.942708" stop-color="#0A0B1A"/>
</linearGradient>
<linearGradient id="paint3_linear" x1="254.612" y1="0.316772" x2="254.612" y2="446.317" gradientUnits="userSpaceOnUse">
<stop offset="0.354167" stop-color="#181B2C"/>
<stop offset="1" stop-color="#646980" stop-opacity="0"/>
</linearGradient>
<linearGradient id="paint4_linear" x1="254.612" y1="0.316772" x2="254.612" y2="446.317" gradientUnits="userSpaceOnUse">
<stop stop-color="#454652" stop-opacity="0"/>
<stop offset="0.942708" stop-color="#0A0B1A"/>
</linearGradient>
<linearGradient id="paint5_linear" x1="108.837" y1="0.316772" x2="108.837" y2="446.317" gradientUnits="userSpaceOnUse">
<stop offset="0.354167" stop-color="#181B2C"/>
<stop offset="1" stop-color="#646980" stop-opacity="0"/>
</linearGradient>
<linearGradient id="paint6_linear" x1="108.837" y1="0.316772" x2="108.837" y2="446.317" gradientUnits="userSpaceOnUse">
<stop stop-color="#454652" stop-opacity="0"/>
<stop offset="0.942708" stop-color="#0A0B1A"/>
</linearGradient>
<linearGradient id="paint7_linear" x1="5.69437" y1="358.218" x2="5.69437" y2="1058.21" gradientUnits="userSpaceOnUse">
<stop offset="0.354167" stop-color="#181B2C"/>
<stop offset="1" stop-color="#646980" stop-opacity="0"/>
</linearGradient>
<linearGradient id="paint8_linear" x1="5.69437" y1="358.218" x2="5.69437" y2="1058.21" gradientUnits="userSpaceOnUse">
<stop stop-color="#454652" stop-opacity="0"/>
<stop offset="0.942708" stop-color="#0A0B1A"/>
</linearGradient>
<linearGradient id="paint9_linear" x1="5.69437" y1="289.391" x2="5.69437" y2="989.384" gradientUnits="userSpaceOnUse">
<stop offset="0.354167" stop-color="#181B2C"/>
<stop offset="1" stop-color="#646980" stop-opacity="0"/>
</linearGradient>
<linearGradient id="paint10_linear" x1="5.69437" y1="289.391" x2="5.69437" y2="989.384" gradientUnits="userSpaceOnUse">
<stop stop-color="#454652" stop-opacity="0"/>
<stop offset="0.942708" stop-color="#0A0B1A"/>
</linearGradient>
<linearGradient id="paint11_linear" x1="5.69437" y1="220.564" x2="5.69437" y2="920.557" gradientUnits="userSpaceOnUse">
<stop offset="0.354167" stop-color="#181B2C"/>
<stop offset="1" stop-color="#646980" stop-opacity="0"/>
</linearGradient>
<linearGradient id="paint12_linear" x1="5.69437" y1="220.564" x2="5.69437" y2="920.557" gradientUnits="userSpaceOnUse">
<stop stop-color="#454652" stop-opacity="0"/>
<stop offset="0.942708" stop-color="#0A0B1A"/>
</linearGradient>
<linearGradient id="paint13_linear" x1="5.69437" y1="151.736" x2="5.69437" y2="851.73" gradientUnits="userSpaceOnUse">
<stop offset="0.354167" stop-color="#181B2C"/>
<stop offset="1" stop-color="#646980" stop-opacity="0"/>
</linearGradient>
<linearGradient id="paint14_linear" x1="5.69437" y1="151.736" x2="5.69437" y2="851.73" gradientUnits="userSpaceOnUse">
<stop stop-color="#454652" stop-opacity="0"/>
<stop offset="0.942708" stop-color="#0A0B1A"/>
</linearGradient>
<linearGradient id="paint15_linear" x1="5.69437" y1="82.9093" x2="5.69437" y2="782.903" gradientUnits="userSpaceOnUse">
<stop offset="0.354167" stop-color="#181B2C"/>
<stop offset="1" stop-color="#646980" stop-opacity="0"/>
</linearGradient>
<linearGradient id="paint16_linear" x1="5.69437" y1="82.9093" x2="5.69437" y2="782.903" gradientUnits="userSpaceOnUse">
<stop stop-color="#454652" stop-opacity="0"/>
<stop offset="0.942708" stop-color="#0A0B1A"/>
</linearGradient>
<linearGradient id="paint17_linear" x1="-12.0754" y1="402.182" x2="592.147" y2="402.182" gradientUnits="userSpaceOnUse">
<stop stop-color="#1B1F31"/>
<stop offset="0.405467" stop-color="white" stop-opacity="0.40625"/>
<stop offset="0.890625" stop-color="#161A2E" stop-opacity="0"/>
</linearGradient>
<linearGradient id="paint18_linear" x1="273.864" y1="5.00208" x2="273.864" y2="402.182" gradientUnits="userSpaceOnUse">
<stop stop-color="white"/>
<stop offset="1" stop-color="white" stop-opacity="0"/>
</linearGradient>
</defs>
</svg>
