<svg width="705" height="489" viewBox="0 0 705 489" fill="none" xmlns="http://www.w3.org/2000/svg">
<rect x="545.473" y="0.316772" width="1.37592" height="446" fill="#ED145B"/>
<rect x="545.473" y="0.316772" width="1.37592" height="446" fill="url(#paint0_linear)"/>
<rect x="399.698" y="0.316772" width="1.37592" height="446" fill="#C4C4C4"/>
<rect x="399.698" y="0.316772" width="1.37592" height="446" fill="url(#paint1_linear)"/>
<rect x="399.698" y="0.316772" width="1.37592" height="446" fill="url(#paint2_linear)"/>
<rect x="253.924" y="0.316772" width="1.37592" height="446" fill="#C4C4C4"/>
<rect x="253.924" y="0.316772" width="1.37592" height="446" fill="url(#paint3_linear)"/>
<rect x="253.924" y="0.316772" width="1.37592" height="446" fill="url(#paint4_linear)"/>
<rect x="108.149" y="0.316772" width="1.37592" height="446" fill="#C4C4C4"/>
<rect x="108.149" y="0.316772" width="1.37592" height="446" fill="url(#paint5_linear)"/>
<rect x="108.149" y="0.316772" width="1.37592" height="446" fill="url(#paint6_linear)"/>
<rect x="5.00641" y="358.218" width="1.37592" height="699.994" transform="rotate(-90 5.00641 358.218)" fill="#C4C4C4"/>
<rect x="5.00641" y="358.218" width="1.37592" height="699.994" transform="rotate(-90 5.00641 358.218)" fill="url(#paint7_linear)"/>
<rect x="5.00641" y="358.218" width="1.37592" height="699.994" transform="rotate(-90 5.00641 358.218)" fill="url(#paint8_linear)"/>
<rect x="5.00641" y="289.391" width="1.37592" height="699.994" transform="rotate(-90 5.00641 289.391)" fill="#C4C4C4"/>
<rect x="5.00641" y="289.391" width="1.37592" height="699.994" transform="rotate(-90 5.00641 289.391)" fill="url(#paint9_linear)"/>
<rect x="5.00641" y="289.391" width="1.37592" height="699.994" transform="rotate(-90 5.00641 289.391)" fill="url(#paint10_linear)"/>
<rect x="5.00641" y="220.564" width="1.37592" height="699.994" transform="rotate(-90 5.00641 220.564)" fill="#C4C4C4"/>
<rect x="5.00641" y="220.564" width="1.37592" height="699.994" transform="rotate(-90 5.00641 220.564)" fill="url(#paint11_linear)"/>
<rect x="5.00641" y="220.564" width="1.37592" height="699.994" transform="rotate(-90 5.00641 220.564)" fill="url(#paint12_linear)"/>
<rect x="5.00641" y="151.736" width="1.37592" height="699.994" transform="rotate(-90 5.00641 151.736)" fill="#C4C4C4"/>
<rect x="5.00641" y="151.736" width="1.37592" height="699.994" transform="rotate(-90 5.00641 151.736)" fill="url(#paint13_linear)"/>
<rect x="5.00641" y="151.736" width="1.37592" height="699.994" transform="rotate(-90 5.00641 151.736)" fill="url(#paint14_linear)"/>
<rect x="5.00641" y="82.9093" width="1.37592" height="699.994" transform="rotate(-90 5.00641 82.9093)" fill="#C4C4C4"/>
<rect x="5.00641" y="82.9093" width="1.37592" height="699.994" transform="rotate(-90 5.00641 82.9093)" fill="url(#paint15_linear)"/>
<rect x="5.00641" y="82.9093" width="1.37592" height="699.994" transform="rotate(-90 5.00641 82.9093)" fill="url(#paint16_linear)"/>
<path d="M1 402.182C2.60575 392.35 5.9549 370.627 6.50545 362.395C7.05599 354.164 11.3227 340.673 13.3873 334.956C14.0754 338.157 16.2776 346.343 19.5809 353.478C23.71 362.395 23.0218 361.023 25.0863 353.478C26.738 347.441 29.4448 338.615 30.5918 334.956C30.8212 338.843 31.4176 347.304 31.9681 350.048C32.5187 352.792 34.0327 363.996 34.7209 369.255L36.7854 393.95C38.6205 388.92 42.0156 376.938 40.9145 369.255C39.8134 361.572 41.8321 355.535 42.979 353.478C44.8142 361.023 48.4845 376.389 48.4845 377.487C48.4845 378.859 51.9254 361.709 53.3017 357.593C54.6781 353.478 59.4954 344.56 60.8717 340.444C61.9728 337.151 67.2947 358.279 69.8181 369.255L74.6353 321.923L79.4526 338.386L81.5171 345.932L89.0871 336.328L93.9044 306.145C94.822 289.225 96.7947 254.286 97.3453 249.895C97.8958 245.505 101.245 264.072 102.851 273.904L108.356 284.194L113.173 273.904L119.367 276.648V256.069C120.514 248.981 123.083 233.02 124.184 225.886C125.285 218.752 130.149 237.09 132.442 247.151C134.278 227.258 138.361 185.962 140.012 179.926C141.664 173.889 148.959 152.258 152.4 142.197L159.97 194.331L163.411 155.231V89.377L176.486 126.42L184.056 5.00208L190.25 46.8466L194.379 24.2094L201.261 87.3191L205.39 33.1271L212.271 66.7399L218.465 76.3435L219.841 136.709L227.411 103.097L234.981 89.377L236.358 18.7216L245.992 44.7886L254.25 58.5082L261.132 76.3435V111.328L270.767 97.6088L279.025 215.597L281.778 167.578L287.971 199.133L296.229 205.307L299.67 247.151L306.552 217.654V187.472L312.746 209.423L320.316 236.862L322.38 190.215L329.95 215.597C333.162 228.63 340.273 256.481 343.026 263.615C345.778 270.749 347.384 270.246 347.843 269.103L351.284 252.639L354.037 215.597L360.23 252.639L373.306 247.151L378.123 284.194L382.252 258.127L384.317 270.475L389.822 254.011C390.51 267.273 392.988 294.346 397.392 296.542L404.274 269.103L405.65 231.374L413.22 199.133L418.037 247.151L425.607 160.718L433.177 199.133L440.747 195.017L446.253 252.639L451.758 221.77L460.016 217.654L466.21 207.365L472.404 236.862L478.597 195.017C478.827 201.191 479.698 214.362 481.35 217.654C483.415 221.77 489.608 223.828 493.737 215.597C497.041 209.011 499.243 194.103 499.931 187.472L504.748 203.249C507.272 200.505 512.318 195.429 512.318 197.075C512.318 199.133 517.824 201.877 521.265 221.77C524.017 237.685 530.211 252.639 532.964 258.127L541.91 238.234L546.727 199.133" stroke="#E2E2E2" stroke-width="2"/>
<path d="M1 402.182C2.60575 392.35 5.9549 370.627 6.50545 362.395C7.05599 354.164 11.3227 340.673 13.3873 334.956C14.0754 338.157 16.2776 346.343 19.5809 353.478C23.71 362.395 23.0218 361.023 25.0863 353.478C26.738 347.441 29.4448 338.615 30.5918 334.956C30.8212 338.843 31.4176 347.304 31.9681 350.048C32.5187 352.792 34.0327 363.996 34.7209 369.255L36.7854 393.95C38.6205 388.92 42.0156 376.938 40.9145 369.255C39.8134 361.572 41.8321 355.535 42.979 353.478C44.8142 361.023 48.4845 376.389 48.4845 377.487C48.4845 378.859 51.9254 361.709 53.3017 357.593C54.6781 353.478 59.4954 344.56 60.8717 340.444C61.9728 337.151 67.2947 358.279 69.8181 369.255L74.6353 321.923L79.4526 338.386L81.5171 345.932L89.0871 336.328L93.9044 306.145C94.822 289.225 96.7947 254.286 97.3453 249.895C97.8958 245.505 101.245 264.072 102.851 273.904L108.356 284.194L113.173 273.904L119.367 276.648V256.069C120.514 248.981 123.083 233.02 124.184 225.886C125.285 218.752 130.149 237.09 132.442 247.151C134.278 227.258 138.361 185.962 140.012 179.926C141.664 173.889 148.959 152.258 152.4 142.197L159.97 194.331L163.411 155.231V89.377L176.486 126.42L184.056 5.00208L190.25 46.8466L194.379 24.2094L201.261 87.3191L205.39 33.1271L212.271 66.7399L218.465 76.3435L219.841 136.709L227.411 103.097L234.981 89.377L236.358 18.7216L245.992 44.7886L254.25 58.5082L261.132 76.3435V111.328L270.767 97.6088L279.025 215.597L281.778 167.578L287.971 199.133L296.229 205.307L299.67 247.151L306.552 217.654V187.472L312.746 209.423L320.316 236.862L322.38 190.215L329.95 215.597C333.162 228.63 340.273 256.481 343.026 263.615C345.778 270.749 347.384 270.246 347.843 269.103L351.284 252.639L354.037 215.597L360.23 252.639L373.306 247.151L378.123 284.194L382.252 258.127L384.317 270.475L389.822 254.011C390.51 267.273 392.988 294.346 397.392 296.542L404.274 269.103L405.65 231.374L413.22 199.133L418.037 247.151L425.607 160.718L433.177 199.133L440.747 195.017L446.253 252.639L451.758 221.77L460.016 217.654L466.21 207.365L472.404 236.862L478.597 195.017C478.827 201.191 479.698 214.362 481.35 217.654C483.415 221.77 489.608 223.828 493.737 215.597C497.041 209.011 499.243 194.103 499.931 187.472L504.748 203.249C507.272 200.505 512.318 195.429 512.318 197.075C512.318 199.133 517.824 201.877 521.265 221.77C524.017 237.685 530.211 252.639 532.964 258.127L541.91 238.234L546.727 199.133" stroke="url(#paint17_linear)" stroke-width="2"/>
<path d="M1 402.182C2.60575 392.35 5.9549 370.627 6.50545 362.395C7.05599 354.164 11.3227 340.673 13.3873 334.956C14.0754 338.157 16.2776 346.343 19.5809 353.478C23.71 362.395 23.0218 361.023 25.0863 353.478C26.738 347.441 29.4448 338.615 30.5918 334.956C30.8212 338.843 31.4176 347.304 31.9681 350.048C32.5187 352.792 34.0327 363.996 34.7209 369.255L36.7854 393.95C38.6205 388.92 42.0156 376.938 40.9145 369.255C39.8134 361.572 41.8321 355.535 42.979 353.478C44.8142 361.023 48.4845 376.389 48.4845 377.487C48.4845 378.859 51.9254 361.709 53.3017 357.593C54.6781 353.478 59.4954 344.56 60.8717 340.444C61.9728 337.151 67.2947 358.279 69.8181 369.255L74.6353 321.923L79.4526 338.386L81.5171 345.932L89.0871 336.328L93.9044 306.145C94.822 289.225 96.7947 254.286 97.3453 249.895C97.8958 245.505 101.245 264.072 102.851 273.904L108.356 284.194L113.173 273.904L119.367 276.648V256.069C120.514 248.981 123.083 233.02 124.184 225.886C125.285 218.752 130.149 237.09 132.442 247.151C134.278 227.258 138.361 185.962 140.012 179.926C141.664 173.889 148.959 152.258 152.4 142.197L159.97 194.331L163.411 155.231V89.377L176.486 126.42L184.056 5.00208L190.25 46.8466L194.379 24.2094L201.261 87.3191L205.39 33.1271L212.271 66.7399L218.465 76.3435L219.841 136.709L227.411 103.097L234.981 89.377L236.358 18.7216L245.992 44.7886L254.25 58.5082L261.132 76.3435V111.328L270.767 97.6088L279.025 215.597L281.778 167.578L287.971 199.133L296.229 205.307L299.67 247.151L306.552 217.654V187.472L312.746 209.423L320.316 236.862L322.38 190.215L329.95 215.597C333.162 228.63 340.273 256.481 343.026 263.615C345.778 270.749 347.384 270.246 347.843 269.103L351.284 252.639L354.037 215.597L360.23 252.639L373.306 247.151L378.123 284.194L382.252 258.127L384.317 270.475L389.822 254.011C390.51 267.273 392.988 294.346 397.392 296.542L404.274 269.103L405.65 231.374L413.22 199.133L418.037 247.151L425.607 160.718L433.177 199.133L440.747 195.017L446.253 252.639L451.758 221.77L460.016 217.654L466.21 207.365L472.404 236.862L478.597 195.017C478.827 201.191 479.698 214.362 481.35 217.654C483.415 221.77 489.608 223.828 493.737 215.597C497.041 209.011 499.243 194.103 499.931 187.472L504.748 203.249C507.272 200.505 512.318 195.429 512.318 197.075C512.318 199.133 517.824 201.877 521.265 221.77C524.017 237.685 530.211 252.639 532.964 258.127L541.91 238.234L546.727 199.133" stroke="url(#paint18_linear)" stroke-width="2"/>
<path d="M546.727 200.94L569.148 218.099L578.117 204.371V174.858L589.328 163.876L594.933 117.204L601.659 139.854L610.628 124.754L615.112 153.581L629.686 100.045" stroke="#ED145B" stroke-width="2" stroke-linecap="round" stroke-linejoin="round" stroke-dasharray="4 4"/>
<ellipse opacity="0.1" cx="630.737" cy="88.4155" rx="42.6322" ry="42.6728" fill="#ED145B"/>
<ellipse opacity="0.3" cx="630.737" cy="88.4156" rx="26.9714" ry="26.9971" fill="#ED145B"/>
<path d="M639.808 88.4154C639.808 93.4304 635.746 97.4951 630.737 97.4951C625.728 97.4951 621.667 93.4304 621.667 88.4154C621.667 83.4004 625.728 79.3358 630.737 79.3358C635.746 79.3358 639.808 83.4004 639.808 88.4154Z" fill="#ED145B" stroke="white"/>
<path d="M150.514 481.624V484H140.992V482.11L145.852 477.52C146.368 477.028 146.716 476.608 146.896 476.26C147.076 475.9 147.166 475.546 147.166 475.198C147.166 474.694 146.992 474.31 146.644 474.046C146.308 473.77 145.81 473.632 145.15 473.632C144.598 473.632 144.1 473.74 143.656 473.956C143.212 474.16 142.84 474.472 142.54 474.892L140.416 473.524C140.908 472.792 141.586 472.222 142.45 471.814C143.314 471.394 144.304 471.184 145.42 471.184C146.356 471.184 147.172 471.34 147.868 471.652C148.576 471.952 149.122 472.384 149.506 472.948C149.902 473.5 150.1 474.154 150.1 474.91C150.1 475.594 149.956 476.236 149.668 476.836C149.38 477.436 148.822 478.12 147.994 478.888L145.096 481.624H150.514ZM157.082 484.216C156.038 484.216 155.108 483.958 154.292 483.442C153.476 482.926 152.834 482.182 152.366 481.21C151.91 480.226 151.682 479.056 151.682 477.7C151.682 476.344 151.91 475.18 152.366 474.208C152.834 473.224 153.476 472.474 154.292 471.958C155.108 471.442 156.038 471.184 157.082 471.184C158.126 471.184 159.056 471.442 159.872 471.958C160.688 472.474 161.324 473.224 161.78 474.208C162.248 475.18 162.482 476.344 162.482 477.7C162.482 479.056 162.248 480.226 161.78 481.21C161.324 482.182 160.688 482.926 159.872 483.442C159.056 483.958 158.126 484.216 157.082 484.216ZM157.082 481.75C157.85 481.75 158.45 481.42 158.882 480.76C159.326 480.1 159.548 479.08 159.548 477.7C159.548 476.32 159.326 475.3 158.882 474.64C158.45 473.98 157.85 473.65 157.082 473.65C156.326 473.65 155.726 473.98 155.282 474.64C154.85 475.3 154.634 476.32 154.634 477.7C154.634 479.08 154.85 480.1 155.282 480.76C155.726 481.42 156.326 481.75 157.082 481.75ZM168.654 471.4V484H165.738V473.74H163.218V471.4H168.654ZM175.271 471.184C177.035 471.184 178.415 471.724 179.411 472.804C180.407 473.872 180.905 475.414 180.905 477.43C180.905 478.858 180.635 480.082 180.095 481.102C179.567 482.122 178.817 482.896 177.845 483.424C176.873 483.952 175.751 484.216 174.479 484.216C173.807 484.216 173.165 484.144 172.553 484C171.941 483.844 171.419 483.628 170.987 483.352L172.067 481.21C172.679 481.63 173.465 481.84 174.425 481.84C175.493 481.84 176.339 481.528 176.963 480.904C177.587 480.268 177.923 479.356 177.971 478.168C177.215 478.924 176.171 479.302 174.839 479.302C174.035 479.302 173.303 479.14 172.643 478.816C171.983 478.492 171.461 478.036 171.077 477.448C170.693 476.848 170.501 476.158 170.501 475.378C170.501 474.538 170.711 473.8 171.131 473.164C171.551 472.528 172.121 472.042 172.841 471.706C173.573 471.358 174.383 471.184 175.271 471.184ZM175.487 477.124C176.123 477.124 176.639 476.95 177.035 476.602C177.443 476.242 177.647 475.786 177.647 475.234C177.647 474.682 177.449 474.232 177.053 473.884C176.669 473.536 176.135 473.362 175.451 473.362C174.827 473.362 174.317 473.53 173.921 473.866C173.537 474.202 173.345 474.658 173.345 475.234C173.345 475.81 173.537 476.272 173.921 476.62C174.317 476.956 174.839 477.124 175.487 477.124Z" fill="white"/>
<path d="M534.37 481.624V484H524.848V482.11L529.708 477.52C530.224 477.028 530.572 476.608 530.752 476.26C530.932 475.9 531.022 475.546 531.022 475.198C531.022 474.694 530.848 474.31 530.5 474.046C530.164 473.77 529.666 473.632 529.006 473.632C528.454 473.632 527.956 473.74 527.512 473.956C527.068 474.16 526.696 474.472 526.396 474.892L524.272 473.524C524.764 472.792 525.442 472.222 526.306 471.814C527.17 471.394 528.16 471.184 529.276 471.184C530.212 471.184 531.028 471.34 531.724 471.652C532.432 471.952 532.978 472.384 533.362 472.948C533.758 473.5 533.956 474.154 533.956 474.91C533.956 475.594 533.812 476.236 533.524 476.836C533.236 477.436 532.678 478.12 531.85 478.888L528.952 481.624H534.37ZM540.938 484.216C539.894 484.216 538.964 483.958 538.148 483.442C537.332 482.926 536.69 482.182 536.222 481.21C535.766 480.226 535.538 479.056 535.538 477.7C535.538 476.344 535.766 475.18 536.222 474.208C536.69 473.224 537.332 472.474 538.148 471.958C538.964 471.442 539.894 471.184 540.938 471.184C541.982 471.184 542.912 471.442 543.728 471.958C544.544 472.474 545.18 473.224 545.636 474.208C546.104 475.18 546.338 476.344 546.338 477.7C546.338 479.056 546.104 480.226 545.636 481.21C545.18 482.182 544.544 482.926 543.728 483.442C542.912 483.958 541.982 484.216 540.938 484.216ZM540.938 481.75C541.706 481.75 542.306 481.42 542.738 480.76C543.182 480.1 543.404 479.08 543.404 477.7C543.404 476.32 543.182 475.3 542.738 474.64C542.306 473.98 541.706 473.65 540.938 473.65C540.182 473.65 539.582 473.98 539.138 474.64C538.706 475.3 538.49 476.32 538.49 477.7C538.49 479.08 538.706 480.1 539.138 480.76C539.582 481.42 540.182 481.75 540.938 481.75ZM557.063 481.624V484H547.541V482.11L552.401 477.52C552.917 477.028 553.265 476.608 553.445 476.26C553.625 475.9 553.715 475.546 553.715 475.198C553.715 474.694 553.541 474.31 553.193 474.046C552.857 473.77 552.359 473.632 551.699 473.632C551.147 473.632 550.649 473.74 550.205 473.956C549.761 474.16 549.389 474.472 549.089 474.892L546.965 473.524C547.457 472.792 548.135 472.222 548.999 471.814C549.863 471.394 550.853 471.184 551.969 471.184C552.905 471.184 553.721 471.34 554.417 471.652C555.125 471.952 555.671 472.384 556.055 472.948C556.451 473.5 556.649 474.154 556.649 474.91C556.649 475.594 556.505 476.236 556.217 476.836C555.929 477.436 555.371 478.12 554.543 478.888L551.645 481.624H557.063ZM563.631 484.216C562.587 484.216 561.657 483.958 560.841 483.442C560.025 482.926 559.383 482.182 558.915 481.21C558.459 480.226 558.231 479.056 558.231 477.7C558.231 476.344 558.459 475.18 558.915 474.208C559.383 473.224 560.025 472.474 560.841 471.958C561.657 471.442 562.587 471.184 563.631 471.184C564.675 471.184 565.605 471.442 566.421 471.958C567.237 472.474 567.873 473.224 568.329 474.208C568.797 475.18 569.031 476.344 569.031 477.7C569.031 479.056 568.797 480.226 568.329 481.21C567.873 482.182 567.237 482.926 566.421 483.442C565.605 483.958 564.675 484.216 563.631 484.216ZM563.631 481.75C564.399 481.75 564.999 481.42 565.431 480.76C565.875 480.1 566.097 479.08 566.097 477.7C566.097 476.32 565.875 475.3 565.431 474.64C564.999 473.98 564.399 473.65 563.631 473.65C562.875 473.65 562.275 473.98 561.831 474.64C561.399 475.3 561.183 476.32 561.183 477.7C561.183 479.08 561.399 480.1 561.831 480.76C562.275 481.42 562.875 481.75 563.631 481.75Z" fill="#ED145B"/>
<defs>
<linearGradient id="paint0_linear" x1="546.161" y1="0.316772" x2="546.161" y2="446.317" gradientUnits="userSpaceOnUse">
<stop stop-color="#0A0B1A"/>
<stop offset="0.447917" stop-color="#454652" stop-opacity="0"/>
</linearGradient>
<linearGradient id="paint1_linear" x1="400.386" y1="0.316772" x2="400.386" y2="446.317" gradientUnits="userSpaceOnUse">
<stop offset="0.354167" stop-color="#181B2C"/>
<stop offset="1" stop-color="#646980" stop-opacity="0"/>
</linearGradient>
<linearGradient id="paint2_linear" x1="400.386" y1="0.316772" x2="400.386" y2="446.317" gradientUnits="userSpaceOnUse">
<stop stop-color="#454652" stop-opacity="0"/>
<stop offset="0.942708" stop-color="#0A0B1A"/>
</linearGradient>
<linearGradient id="paint3_linear" x1="254.612" y1="0.316772" x2="254.612" y2="446.317" gradientUnits="userSpaceOnUse">
<stop offset="0.354167" stop-color="#181B2C"/>
<stop offset="1" stop-color="#646980" stop-opacity="0"/>
</linearGradient>
<linearGradient id="paint4_linear" x1="254.612" y1="0.316772" x2="254.612" y2="446.317" gradientUnits="userSpaceOnUse">
<stop stop-color="#454652" stop-opacity="0"/>
<stop offset="0.942708" stop-color="#0A0B1A"/>
</linearGradient>
<linearGradient id="paint5_linear" x1="108.837" y1="0.316772" x2="108.837" y2="446.317" gradientUnits="userSpaceOnUse">
<stop offset="0.354167" stop-color="#181B2C"/>
<stop offset="1" stop-color="#646980" stop-opacity="0"/>
</linearGradient>
<linearGradient id="paint6_linear" x1="108.837" y1="0.316772" x2="108.837" y2="446.317" gradientUnits="userSpaceOnUse">
<stop stop-color="#454652" stop-opacity="0"/>
<stop offset="0.942708" stop-color="#0A0B1A"/>
</linearGradient>
<linearGradient id="paint7_linear" x1="5.69437" y1="358.218" x2="5.69437" y2="1058.21" gradientUnits="userSpaceOnUse">
<stop offset="0.354167" stop-color="#181B2C"/>
<stop offset="1" stop-color="#646980" stop-opacity="0"/>
</linearGradient>
<linearGradient id="paint8_linear" x1="5.69437" y1="358.218" x2="5.69437" y2="1058.21" gradientUnits="userSpaceOnUse">
<stop stop-color="#454652" stop-opacity="0"/>
<stop offset="0.942708" stop-color="#0A0B1A"/>
</linearGradient>
<linearGradient id="paint9_linear" x1="5.69437" y1="289.391" x2="5.69437" y2="989.384" gradientUnits="userSpaceOnUse">
<stop offset="0.354167" stop-color="#181B2C"/>
<stop offset="1" stop-color="#646980" stop-opacity="0"/>
</linearGradient>
<linearGradient id="paint10_linear" x1="5.69437" y1="289.391" x2="5.69437" y2="989.384" gradientUnits="userSpaceOnUse">
<stop stop-color="#454652" stop-opacity="0"/>
<stop offset="0.942708" stop-color="#0A0B1A"/>
</linearGradient>
<linearGradient id="paint11_linear" x1="5.69437" y1="220.564" x2="5.69437" y2="920.557" gradientUnits="userSpaceOnUse">
<stop offset="0.354167" stop-color="#181B2C"/>
<stop offset="1" stop-color="#646980" stop-opacity="0"/>
</linearGradient>
<linearGradient id="paint12_linear" x1="5.69437" y1="220.564" x2="5.69437" y2="920.557" gradientUnits="userSpaceOnUse">
<stop stop-color="#454652" stop-opacity="0"/>
<stop offset="0.942708" stop-color="#0A0B1A"/>
</linearGradient>
<linearGradient id="paint13_linear" x1="5.69437" y1="151.736" x2="5.69437" y2="851.73" gradientUnits="userSpaceOnUse">
<stop offset="0.354167" stop-color="#181B2C"/>
<stop offset="1" stop-color="#646980" stop-opacity="0"/>
</linearGradient>
<linearGradient id="paint14_linear" x1="5.69437" y1="151.736" x2="5.69437" y2="851.73" gradientUnits="userSpaceOnUse">
<stop stop-color="#454652" stop-opacity="0"/>
<stop offset="0.942708" stop-color="#0A0B1A"/>
</linearGradient>
<linearGradient id="paint15_linear" x1="5.69437" y1="82.9093" x2="5.69437" y2="782.903" gradientUnits="userSpaceOnUse">
<stop offset="0.354167" stop-color="#181B2C"/>
<stop offset="1" stop-color="#646980" stop-opacity="0"/>
</linearGradient>
<linearGradient id="paint16_linear" x1="5.69437" y1="82.9093" x2="5.69437" y2="782.903" gradientUnits="userSpaceOnUse">
<stop stop-color="#454652" stop-opacity="0"/>
<stop offset="0.942708" stop-color="#0A0B1A"/>
</linearGradient>
<linearGradient id="paint17_linear" x1="-12.0754" y1="402.182" x2="592.147" y2="402.182" gradientUnits="userSpaceOnUse">
<stop stop-color="#1B1F31"/>
<stop offset="0.405467" stop-color="white" stop-opacity="0.40625"/>
<stop offset="0.890625" stop-color="#161A2E" stop-opacity="0"/>
</linearGradient>
<linearGradient id="paint18_linear" x1="273.864" y1="5.00208" x2="273.864" y2="402.182" gradientUnits="userSpaceOnUse">
<stop stop-color="white"/>
<stop offset="1" stop-color="white" stop-opacity="0"/>
</linearGradient>
</defs>
</svg>
