<svg width="82" height="58" viewBox="0 0 82 58" fill="none" xmlns="http://www.w3.org/2000/svg">
<path d="M73.8684 13.3249C73.5563 13.8815 72.8582 14.0783 72.3079 13.7627C63.9179 8.97378 55.0481 8.97378 46.6581 13.7627C46.4802 13.8645 46.2856 13.912 46.0977 13.912C45.6983 13.912 45.309 13.6982 45.0976 13.3215C44.7855 12.7649 44.9801 12.0555 45.5305 11.7433C50.0544 9.16045 54.7494 7.85037 59.4813 7.85037C64.2132 7.85037 68.9083 9.16045 73.4321 11.7433C73.9859 12.0589 74.1805 12.7649 73.8684 13.3249Z" fill="#00FFDD"/>
<path d="M49.3698 49.6372C46.9267 50.3873 44.5137 51.4089 42.1444 52.702V7.25636C47.722 3.98116 53.5514 2.3181 59.4814 2.3181C65.4114 2.3181 71.2407 3.97776 76.815 7.25636V33.0982L77.1104 33.1322C79.1776 33.1593 80.9899 34.2861 82 35.956V11.1696C82 10.3551 81.2986 9.69325 80.4294 9.69325H79.1072V6.59453C79.1072 6.18725 78.8957 5.81052 78.5534 5.60009C72.4489 1.88367 66.0323 0 59.4814 0C53.1453 0 46.93 1.76488 41 5.24712C35.07 1.76488 28.8581 0 22.5186 0C15.9711 0 9.55447 1.88367 3.44659 5.60009C3.10092 5.81052 2.89285 6.18725 2.89285 6.59453V9.69325H1.5706C0.704753 9.69325 0 10.3551 0 11.1696V56.4897C0 57.3042 0.704753 57.966 1.5706 57.966H57.6289C57.555 57.8982 57.4779 57.8337 57.4074 57.7624L49.3698 49.6372ZM39.8556 52.702C34.2713 49.6508 28.4486 48.1031 22.5186 48.1031C16.5886 48.1031 10.766 49.6474 5.18499 52.702V7.25636C10.7626 3.98116 16.592 2.3181 22.522 2.3181C28.452 2.3181 34.2813 3.97776 39.8556 7.25636V52.702Z" fill="#00FFDD"/>
<path d="M22.5187 7.85037C17.7868 7.85037 13.0918 9.16045 8.56792 11.7433C8.01754 12.0589 7.8229 12.7649 8.13165 13.3215C8.34307 13.6982 8.73237 13.912 9.13173 13.912C9.32302 13.912 9.51431 13.8645 9.69554 13.7627C18.0855 8.97378 26.9553 8.97378 35.3453 13.7627C35.8957 14.0783 36.5971 13.8815 36.9058 13.3249C37.2179 12.7683 37.0233 12.0589 36.4729 11.7467C31.9457 9.16045 27.2507 7.85037 22.5187 7.85037Z" fill="#00FFDD" stroke="#00FFDD"/>
<path d="M36.4695 20.0586C31.9457 17.4758 27.2507 16.1657 22.5187 16.1657C17.7868 16.1657 13.0918 17.4758 8.56792 20.0586C8.01754 20.3742 7.8229 21.0802 8.13165 21.6368C8.34307 22.0135 8.73237 22.2274 9.13173 22.2274C9.32302 22.2274 9.51431 22.1798 9.69554 22.078C18.0855 17.2891 26.9553 17.2891 35.3453 22.078C35.8957 22.3937 36.5971 22.1968 36.9058 21.6368C37.2179 21.0802 37.0233 20.3708 36.4695 20.0586Z" fill="#00FFDD" stroke="#00FFDD"/>
<path d="M36.4695 27.8748C31.9457 25.292 27.2507 23.9819 22.5187 23.9819C17.7868 23.9819 13.0918 25.292 8.56792 27.8748C8.01754 28.1905 7.8229 28.8964 8.13165 29.4531C8.34307 29.8298 8.73237 30.0436 9.13173 30.0436C9.32302 30.0436 9.51431 29.9961 9.69554 29.8943C18.0855 25.1053 26.9553 25.1053 35.3453 29.8943C35.8957 30.2099 36.5971 30.0131 36.9058 29.4531C37.2179 28.8964 37.0233 28.1905 36.4695 27.8748Z" fill="#00FFDD" stroke="#00FFDD"/>
<path d="M36.4695 35.6811C31.9457 33.0983 27.2507 31.7882 22.5187 31.7882C17.7868 31.7882 13.0918 33.0983 8.56792 35.6811C8.01754 35.9968 7.8229 36.7027 8.13165 37.2593C8.34307 37.6361 8.73237 37.8499 9.13173 37.8499C9.32302 37.8499 9.51431 37.8024 9.69554 37.7005C18.0855 32.9116 26.9553 32.9116 35.3453 37.7005C35.8957 38.0162 36.5971 37.8193 36.9058 37.2593C37.2179 36.7027 37.0233 35.9968 36.4695 35.6811Z" fill="#00FFDD" stroke="#00FFDD"/>
<path d="M36.4695 43.2564C31.9457 40.6736 27.2507 39.3635 22.5187 39.3635C17.7868 39.3635 13.0918 40.6736 8.56792 43.2564C8.01754 43.5721 7.8229 44.278 8.13165 44.8346C8.34307 45.2114 8.73237 45.4252 9.13173 45.4252C9.32302 45.4252 9.51431 45.3777 9.69554 45.2759C18.0855 40.4869 26.9553 40.4869 35.3453 45.2759C35.8957 45.5915 36.5971 45.3947 36.9058 44.8346C37.2179 44.278 37.0233 43.5721 36.4695 43.2564Z" fill="#00FFDD" stroke="#00FFDD"/>
<path d="M73.4356 11.7433C68.9117 9.16045 64.2167 7.85037 59.4848 7.85037C54.7529 7.85037 50.0578 9.16045 45.534 11.7433C44.9836 12.0589 44.789 12.7649 45.1011 13.3215C45.3125 13.6982 45.7018 13.912 46.1011 13.912C46.2924 13.912 46.4837 13.8645 46.6616 13.7627C55.0515 8.97378 63.9214 8.97378 72.3113 13.7627C72.8617 14.0783 73.5631 13.8815 73.8719 13.3249C74.1806 12.7649 73.986 12.0589 73.4356 11.7433Z" fill="#00FFDD" stroke="#00FFDD"/>
<path d="M73.4356 19.4442C68.9117 16.8614 64.2167 15.5513 59.4848 15.5513C54.7529 15.5513 50.0578 16.8614 45.534 19.4442C44.9836 19.7599 44.789 20.4658 45.1011 21.0224C45.3125 21.3992 45.7018 21.613 46.1011 21.613C46.2924 21.613 46.4837 21.5655 46.6616 21.4637C55.0515 16.6747 63.9214 16.6747 72.3113 21.4637C72.8617 21.7793 73.5631 21.5825 73.8719 21.0224C74.1806 20.4658 73.986 19.7599 73.4356 19.4442Z" fill="#00FFDD" stroke="#00FFDD"/>
<path d="M73.8685 29.4532C74.1806 28.8965 73.986 28.1872 73.4356 27.875C71.1434 26.5649 68.8043 25.584 66.4417 24.9358V27.3489C68.415 27.9428 70.3749 28.7913 72.308 29.8944C72.8583 30.21 73.5564 30.0132 73.8685 29.4532Z" fill="#00FFDD" stroke="#00FFDD"/>
<path d="M45.0944 29.4531C45.3058 29.8298 45.6951 30.0437 46.0945 30.0437C46.2858 30.0437 46.4771 29.9962 46.6549 29.8943C49.5176 28.2618 52.4339 27.1859 55.3704 26.6666V24.318C52.0346 24.8542 48.739 26.0455 45.5307 27.8783C44.9803 28.1905 44.7857 28.8965 45.0944 29.4531Z" fill="#00FFDD" stroke="#00FFDD"/>
<path d="M45.0944 37.2592C45.3058 37.6359 45.6951 37.8498 46.0945 37.8498C46.2858 37.8498 46.4771 37.8022 46.6549 37.7004C49.5176 36.0679 52.4339 34.992 55.3704 34.4727V32.1241C52.0346 32.6637 48.739 33.8516 45.5307 35.6844C44.9803 35.9966 44.7857 36.7026 45.0944 37.2592Z" fill="#00FFDD" stroke="#00FFDD"/>
<path d="M77.0331 58C79.5199 58 81.5369 55.9602 81.5369 53.4453V39.0174C81.5369 36.499 79.5199 34.4593 77.0331 34.4593L65.1261 33.0847V23.4525C65.1261 21.0937 63.2367 19.1863 60.9077 19.1863C58.5753 19.1863 56.6892 21.0971 56.6892 23.4525V43.7758L52.6621 39.703C51.8868 38.9156 50.8666 38.5253 49.8497 38.5253C48.8329 38.5253 47.8127 38.919 47.0374 39.703C45.4836 41.2744 45.4836 43.8233 47.0374 45.3947L58.337 56.8223C59.1156 57.6063 60.1324 57.9966 61.1493 57.9966C61.1929 57.9966 61.2399 57.9966 61.2835 57.9932C61.3238 57.9932 61.3674 58 61.4077 58H77.0331Z" fill="#00FFDD"/>
</svg>
