<svg width="64" height="60" viewBox="0 0 64 60" fill="none" xmlns="http://www.w3.org/2000/svg">
<path fill-rule="evenodd" clip-rule="evenodd" d="M57.332 25.5774H48.4206V35.3679H42.6251C42.6251 40.7932 42.6251 46.2185 42.6251 51.5814C47.5482 51.5814 52.4713 51.5814 57.3944 51.5814V25.5774H57.332ZM46.1149 48.0269V38.86H50.7264V48.0269H46.1149ZM39.5093 0H30.5979V22.6465H24.74C24.74 32.3123 24.74 41.9157 24.74 51.5814C29.6631 51.5814 34.5862 51.5814 39.5093 51.5814V0ZM28.2298 48.0269V26.1386H32.8413V48.0269H28.2298ZM21.4372 18.7178H12.5258V34.6196H6.66796C6.66796 40.2943 6.66796 45.9067 6.66796 51.5814H21.4372V49.3988V18.7178ZM10.1577 48.0269V38.1117H14.7692V48.0269H10.1577ZM64 54.45H0V60H64V54.45Z" fill="#00FFDD"/>
</svg>
