<svg width="82" height="59" viewBox="0 0 82 59" fill="none" xmlns="http://www.w3.org/2000/svg">
<path fill-rule="evenodd" clip-rule="evenodd" d="M12.8288 5.7127V40.6444H69.0846V5.7127H12.8288ZM7.80127 46.3571V0H74.1987V46.3571C76.7992 48.7921 79.3996 51.3206 82 53.7556V59H0V53.7556C2.60042 51.3206 5.20085 48.7921 7.80127 46.3571ZM20.8901 31.654V37.9286H16.6427V34.4635L20.8901 31.654ZM28.1712 26.6905V37.9286H23.9239V29.5L28.1712 26.6905ZM35.4524 31.5603V37.8349H31.2051V28.4698L35.4524 31.5603ZM42.8203 32.2159V37.8349H38.5729V33.4333C40.1332 33.9952 41.7801 33.4333 42.8203 32.2159ZM50.1015 23.2254V37.9286H45.9408V22.5698L46.2875 21.3524L48.8013 22.7571C49.2347 22.9444 49.6681 23.1317 50.1015 23.2254ZM57.4693 20.2286V37.8349H53.222V22.4762L57.4693 20.2286ZM64.7505 16.4825V37.9286H60.5032V23.881L64.7505 16.4825ZM16.6427 26.0349L27.1311 18.9175C27.9979 18.2619 29.2114 18.3556 29.9915 19.0111L38.2262 25.0048L41.26 14.0476C41.6934 12.4556 43.5137 11.7064 44.9006 12.5492L50.7949 15.827L56.8626 12.5492L55.4757 9.73968L66.0507 10.3952L60.5032 20.2286L59.0296 17.2317L51.8351 21.0714C51.1416 21.446 50.1882 21.446 49.4947 21.0714L45.074 18.5429L41.9535 29.781C41.5201 31.5603 39.5264 32.3095 38.1395 31.2794L28.3446 24.1619L16.556 32.1222V26.0349H16.6427Z" fill="#00FFDD"/>
</svg>
