<svg width="60" height="53" viewBox="0 0 60 53" fill="none" xmlns="http://www.w3.org/2000/svg">
<path fill-rule="evenodd" clip-rule="evenodd" d="M17.216 52.5187C25.6646 52.5187 34.1928 52.5187 42.6414 52.5187V49.5366H38.0186L36.3448 45.229H23.5126L21.8388 49.5366H17.216V52.5187ZM53.4811 37.608C53.7999 37.608 54.039 37.3595 54.039 37.0282V6.62696C54.039 6.29561 53.7999 6.04712 53.4811 6.04712H6.37629C6.05747 6.04712 5.81836 6.29561 5.81836 6.62696C5.81836 17.9756 5.81836 25.5967 5.81836 37.0282C5.81836 37.3595 6.05747 37.608 6.37629 37.608C23.2735 37.608 36.584 37.608 53.4811 37.608ZM2.39111 0H57.546C58.8213 0 59.9371 1.07688 59.9371 2.48511V41.17C59.9371 42.4954 58.901 43.6551 57.546 43.6551C39.1345 43.6551 20.8026 43.6551 2.39111 43.6551C1.11585 43.6551 0 42.5782 0 41.17V2.48511C0 1.07688 1.03615 0 2.39111 0ZM8.52829 34.543V30.0699H17.6942V34.543H8.52829ZM19.8462 34.543V30.0699H29.0121V34.543H19.8462ZM31.0844 34.543V30.0699H40.2503V34.543H31.0844ZM42.3226 34.543V30.0699H51.4885V34.543H42.3226ZM8.52829 28.4131V23.9399H17.6942V28.4131H8.52829ZM19.8462 28.4131V23.9399H29.0121V28.4131H19.8462ZM31.0844 28.4131V23.9399H40.2503V28.4131H31.0844ZM42.3226 28.4131V23.9399H51.4885V28.4131H42.3226ZM8.52829 22.2832V17.81H17.6942V22.2832H8.52829ZM31.0844 22.2832V17.81H40.2503V22.2832H31.0844ZM42.3226 22.2832V17.81H51.4885V22.2832H42.3226ZM42.3226 16.0704V11.5972H51.4885V16.0704H42.3226Z" fill="#00FFDD"/>
</svg>
