<svg width="61" height="62" viewBox="0 0 61 62" fill="none" xmlns="http://www.w3.org/2000/svg">
<path fill-rule="evenodd" clip-rule="evenodd" d="M21.0188 7.03704C21.4929 2.37204 25.6809 0 30.343 0C35.0051 0 39.193 2.37204 39.6671 7.03704C39.9042 9.48814 39.3511 15.2601 38.1658 17.474C37.1385 19.3716 34.61 21.2693 31.8443 21.9018C30.501 22.0599 30.1849 22.0599 28.8416 21.9018C26.076 21.2693 23.6264 19.4507 22.5202 17.474C21.3349 15.2601 20.7818 9.48814 21.0188 7.03704ZM0 55.5056H10.5884C9.40317 55.1894 8.37593 54.5568 7.74378 53.608C6.55851 52.0266 6.71655 49.1802 7.19066 47.3616L11.6157 31.9434C12.4849 26.5668 18.7273 24.511 23.3894 23.4832L28.0515 33.6829L28.6046 27.3575C28.6046 27.3575 28.2095 25.2226 28.1305 24.6692C28.1305 24.432 28.2885 24.2738 28.5256 24.2738C29.7108 24.3529 30.8961 24.3529 32.0814 24.2738C32.3184 24.2738 32.4765 24.432 32.4765 24.6692C32.3975 25.1436 32.0024 27.2784 32.0024 27.3575L32.5555 33.6829L37.2176 23.4832C41.6426 24.432 47.727 26.4087 48.9123 31.5481L53.4163 47.4407C53.8904 49.2593 54.0484 52.1057 52.8632 53.6871C52.231 54.5568 51.2038 55.1893 50.0185 55.5847H60.6069V61.2776H0V55.5056ZM16.6728 54.4777H43.618V35.7387C43.618 35.5015 43.539 35.3433 43.2229 35.3433H17.0679C16.8309 35.3433 16.6728 35.5015 16.6728 35.7387V54.4777ZM18.0952 52.3429V53.5289H42.3537V52.3429H18.0952Z" fill="#00FFDD"/>
</svg>
