<svg width="71" height="76" viewBox="0 0 71 76" fill="none" xmlns="http://www.w3.org/2000/svg">
<path fill-rule="evenodd" clip-rule="evenodd" d="M30.4199 64.3547H4.41424V4.43162H52.683V31.3103C54.2184 31.792 55.6578 32.4664 57.0973 33.2371V0H0V68.69H35.3139C34.0664 67.8229 32.8189 66.8595 31.7634 65.7998C31.2835 65.4144 30.8037 64.8364 30.4199 64.3547ZM30.4199 24.6629V9.92296H47.9809V24.6629H30.4199ZM9.11637 47.4953V38.4394H26.6774V47.4953H9.11637ZM9.11637 13.2948V9.92296H26.6774V13.2948H9.11637ZM9.11637 18.9789V15.607H26.6774V18.9789H9.11637ZM9.11637 24.6629V21.291H26.6774V24.6629H9.11637ZM9.11637 30.3469V26.975H26.6774V30.3469H9.11637ZM30.4199 36.0309V32.659H37.0413C35.4099 33.5261 33.7785 34.6822 32.3391 36.0309H30.4199ZM9.11637 36.0309V32.659H26.6774V36.0309H9.11637ZM9.11637 53.1793V49.8075H26.6774V53.1793H9.11637ZM9.11637 58.8634V55.4915H26.6774V58.8634H9.11637ZM30.7078 30.3469V26.975H48.2688V30.3469H30.7078ZM62.4711 59.3451L69.8602 66.8595C71.3956 68.4009 71.3956 70.9058 69.7642 72.4472L67.2692 74.8557C65.7338 76.3971 63.2388 76.3971 61.7034 74.7594L54.4103 67.2449C47.597 70.6168 39.3443 69.1717 33.9705 63.6803C27.0612 56.6476 27.1572 45.3758 34.1624 38.4394C41.1676 31.503 52.3951 31.5993 59.3044 38.6321C64.5823 44.2198 65.8298 52.6013 62.4711 59.3451ZM39.1524 43.6417C43.3747 39.4991 50.0921 39.5955 54.2184 43.7381C58.3448 47.977 58.2488 54.7208 54.1224 58.8634C49.9001 63.006 43.1828 62.9096 39.0564 58.767C34.8341 54.5281 34.9301 47.7843 39.1524 43.6417Z" fill="#00FFDD"/>
</svg>
