<svg width="58" height="82" viewBox="0 0 58 82" fill="none" xmlns="http://www.w3.org/2000/svg">
<path fill-rule="evenodd" clip-rule="evenodd" d="M3.90487 82H22.5614C22.8292 82 23.097 81.7386 23.097 81.4771V71.4559C23.097 71.1945 22.8292 70.933 22.5614 70.933H19.4371C19.5264 69.5388 19.7049 68.2317 19.9727 67.2731C20.8654 64.2231 22.1151 60.9989 23.097 57.949C23.6326 56.5547 23.6326 54.4633 23.7219 52.8077L23.9897 46.7949C24.079 44.5292 24.7931 40.9564 21.4903 40.7821C18.4552 40.6079 17.9196 43.4835 17.7411 45.5749C17.2055 47.3177 16.7592 49.322 16.2236 50.9777C15.9558 51.6748 15.7772 52.1977 15.1524 52.1977C13.6349 52.2848 10.7783 52.1105 9.79642 50.8905C9.17156 50.1934 8.72522 49.2349 8.36816 48.4506C8.10036 47.8406 8.0111 47.7535 7.92183 47.1435C7.83257 46.3592 7.65404 44.9649 7.11844 44.1806C7.02918 43.9192 7.02918 43.8321 7.20772 43.6578C7.74331 43.3092 9.26083 42.1764 9.88569 41.2178V34.9437C7.92184 36.3379 6.04726 38.255 4.08341 39.9107C2.92295 40.7821 2.65516 41.4793 2.38736 42.1764C1.7625 44.2678 1.13762 46.1849 0.691289 48.2763C0.602023 48.712 0.512762 49.0606 0.334231 49.4963C-0.022833 50.6291 -0.112083 51.3262 0.155715 52.7205C0.334247 53.4176 0.69131 54.0276 1.04837 54.899L4.3512 63.3517C5.42239 66.1403 5.958 67.5345 5.958 70.5845V71.1073H3.81559C3.5478 71.1073 3.28002 71.3687 3.28002 71.6302V81.6514C3.36929 81.8257 3.63707 82 3.90487 82ZM14.0812 0H55.322C56.7503 0 58 1.13284 58 2.61424V58.2104C58 59.6047 56.8395 60.8246 55.322 60.8246H23.9004C24.1682 60.0404 24.436 59.2561 24.7038 58.4718C25.0609 57.4261 25.2394 56.119 25.3287 54.899H52.9118C53.2689 54.899 53.5367 54.6376 53.5367 54.289V4.96704C53.5367 4.61847 53.2689 4.35707 52.9118 4.35707H16.4914C16.1343 4.35707 15.8665 4.61847 15.8665 4.96704V46.7949C15.5094 48.0149 15.2416 49.2348 14.7953 50.3677C14.7953 50.4548 14.7953 50.4548 14.706 50.542C13.8134 50.542 12.1173 50.4548 11.4032 50.0191V2.52709C11.4032 1.13283 12.6529 0 14.0812 0ZM32.9163 56.729V58.8204H36.4869V56.729H32.9163ZM18.9016 18.9968V23.1796L22.2936 21.0882L29.6135 25.881C30.6847 26.5781 32.2022 26.0553 32.47 24.8353L34.7909 17.254L38.0937 18.9097C38.6293 19.1711 39.2542 19.1711 39.879 18.9097L45.3242 16.2954L46.3954 18.2997L50.5909 11.6769L42.6463 11.2412L43.6282 13.1583L39.0756 15.3369L34.6123 13.0712C33.5411 12.5484 32.2022 12.984 31.8451 14.1169L29.6135 21.5239L23.4541 17.5154C22.8292 17.0797 22.0258 16.9926 21.3117 17.4283L18.9016 18.9968ZM49.4305 15.8597L46.3062 20.9139V36.7736H49.4305V15.8597ZM43.9852 18.4739L40.8609 19.9554V36.6865H43.9852V18.4739ZM38.4508 20.4782C38.0937 20.3911 37.7366 20.3039 37.4688 20.1297L35.5943 19.1711L35.3265 20.0425V36.7736H38.4508V20.4782ZM33.0056 26.5781C32.2022 27.3624 30.9524 27.7109 29.8812 27.4495V36.6865H33.0056V26.5781ZM27.5603 26.1424V36.7736H24.436V24.1381L27.5603 26.1424ZM22.0259 22.831V36.7736H18.9016V24.7481L22.0259 22.831Z" fill="#00FFDD"/>
</svg>
